<svg width="16" height="16" viewBox="0 0 16 16" fill="none" xmlns="http://www.w3.org/2000/svg">
<path d="M10.0033 9.92855C11.2803 7.92481 11.1198 8.1748 11.1566 8.12255C11.6215 7.46682 11.8672 6.69505 11.8672 5.89062C11.8672 3.75734 10.1361 2 8 2C5.87089 2 4.13281 3.75388 4.13281 5.89062C4.13281 6.69453 4.38369 7.48651 4.86383 8.15108L5.99661 9.92858C4.78548 10.1147 2.72656 10.6693 2.72656 11.8906C2.72656 12.3358 3.01714 12.9703 4.40145 13.4647C5.36806 13.8099 6.64604 14 8 14C10.5318 14 13.2734 13.2858 13.2734 11.8906C13.2734 10.6691 11.2169 10.1151 10.0033 9.92855ZM5.45115 7.76434C5.44728 7.75829 5.44325 7.75238 5.43903 7.74657C5.03949 7.19691 4.83594 6.54549 4.83594 5.89062C4.83594 4.13239 6.2517 2.70312 8 2.70312C9.74466 2.70312 11.1641 4.13302 11.1641 5.89062C11.1641 6.54655 10.9644 7.17587 10.5864 7.71104C10.5526 7.75571 10.7292 7.48121 8 11.7638L5.45115 7.76434ZM8 13.2969C5.23452 13.2969 3.42969 12.484 3.42969 11.8906C3.42969 11.4918 4.35706 10.8361 6.41206 10.5804L7.70352 12.6069C7.76806 12.7082 7.87986 12.7695 7.99998 12.7695C8.12009 12.7695 8.23191 12.7082 8.29644 12.6069L9.58787 10.5804C11.6429 10.8361 12.5703 11.4918 12.5703 11.8906C12.5703 12.479 10.7817 13.2969 8 13.2969Z" fill="black"/>
<path d="M8 4.13281C7.03074 4.13281 6.24219 4.92137 6.24219 5.89062C6.24219 6.85988 7.03074 7.64844 8 7.64844C8.96926 7.64844 9.75781 6.85988 9.75781 5.89062C9.75781 4.92137 8.96926 4.13281 8 4.13281ZM8 6.94531C7.41845 6.94531 6.94531 6.47218 6.94531 5.89062C6.94531 5.30907 7.41845 4.83594 8 4.83594C8.58155 4.83594 9.05469 5.30907 9.05469 5.89062C9.05469 6.47218 8.58155 6.94531 8 6.94531Z" fill="black"/>
</svg>
