<svg width="195" height="238" viewBox="0 0 195 238" fill="none" xmlns="http://www.w3.org/2000/svg">
<g clip-path="url(#clip0_327_9255)">
<path fill-rule="evenodd" clip-rule="evenodd" d="M62.2094 237.944C52.0442 237.944 43.1628 233.855 38.4496 227.005C36.0651 223.567 34.8524 219.575 34.8524 215.161V109.79H9.93598C4.45845 109.79 0 105.34 0 99.8735V69.4624C0 54.4044 12.2749 42.1535 27.3622 42.1535C27.8665 42.1535 28.3862 42.1687 28.9469 42.2043H72.6142C72.6091 42.0161 72.6091 41.828 72.6091 41.6449C72.6091 30.5789 76.9351 20.1283 84.7972 12.2153L84.8431 12.1695C92.7766 4.31755 103.268 0 114.391 0C125.479 0 135.955 4.31757 143.878 12.1644C151.771 19.9757 156.122 30.4467 156.122 41.65C156.122 43.6537 155.868 45.7692 155.343 48.0577C161.585 52.7007 164.988 59.7339 164.988 68.0944V182.67H185.064C190.542 182.67 195 187.12 195 192.587V215.166C195 222.444 191.311 228.811 184.611 233.103C179.755 236.215 173.569 238 167.638 238L62.2094 237.944Z" fill="#F4F3F3"/>
<path fill-rule="evenodd" clip-rule="evenodd" d="M185.064 185.716H161.931V68.0892C161.931 59.9423 158.369 53.382 151.847 49.3696C152.668 46.5166 153.065 43.9586 153.065 41.6447C153.065 31.2602 149.04 21.5572 141.728 14.3256C134.38 7.05339 124.668 3.04604 114.391 3.04604C104.083 3.04604 94.3561 7.05339 87.0034 14.3256L86.9678 14.3612C79.6814 21.6995 75.6662 31.3873 75.6662 41.6447C75.6662 42.789 75.763 43.9891 75.9618 45.2554H28.8499C28.3151 45.2198 27.8258 45.2046 27.3621 45.2046C13.961 45.2046 3.05713 56.0875 3.05713 69.4623V99.8734C3.05713 103.657 6.14503 106.739 9.93588 106.739H37.9095V215.161C37.9095 218.945 38.9439 222.357 40.9719 225.276C45.1143 231.297 53.058 234.893 62.2144 234.893L167.643 234.943C173.003 234.943 178.588 233.336 182.965 230.529C188.758 226.817 191.948 221.36 191.948 215.161V192.581C191.943 188.798 188.855 185.716 185.064 185.716Z" fill="white"/>
<path fill-rule="evenodd" clip-rule="evenodd" d="M9.17163 69.4623C9.17163 59.4948 17.3752 51.3072 27.3621 51.3072C37.3493 51.3072 45.5526 59.4948 45.5526 69.4623V99.8734C45.5526 100.331 45.1959 100.636 44.7883 100.636H9.93594C9.52831 100.636 9.17163 100.28 9.17163 99.8734V69.4623Z" fill="#E4D8D9"/>
<path fill-rule="evenodd" clip-rule="evenodd" d="M80.4049 193.395V215.212C80.4049 217.602 79.7425 219.84 78.4177 221.823C74.9529 226.858 68.0232 228.79 62.2144 228.79C56.4057 228.79 49.476 226.858 46.0113 221.823C44.6354 219.84 44.0239 217.602 44.0239 215.161V69.4624C44.0239 60.3594 36.5337 52.8837 27.4132 52.8837C27.0054 52.8837 26.6489 52.5278 26.6489 52.1209C26.6489 51.7141 27.0054 51.3581 27.4132 51.3581H138.136C139.053 51.409 140.072 51.5107 140.938 51.7141C143.027 52.0701 145.065 52.7312 146.951 53.6466C152.861 56.4944 155.816 61.529 155.816 68.0893V192.632C155.816 193.09 155.46 193.395 155.052 193.395H80.4049Z" fill="#E2ECFF"/>
<path fill-rule="evenodd" clip-rule="evenodd" d="M79.5897 191.819H185.064C185.523 191.819 185.828 192.175 185.828 192.581V215.161C185.828 224.213 175.434 228.841 167.638 228.841L62.2145 228.79C61.7559 228.79 61.4502 228.434 61.4502 228.027C61.4502 227.62 61.8069 227.264 62.2145 227.264C67.4627 227.264 73.9848 225.535 77.093 220.958C78.2649 219.229 78.8254 217.297 78.8254 215.212V192.632C78.8254 192.175 79.1821 191.819 79.5897 191.819Z" fill="#CCDDFF"/>
<path fill-rule="evenodd" clip-rule="evenodd" d="M160.504 222.688C159.434 222.688 158.517 221.823 158.517 220.704C158.517 219.636 159.383 218.721 160.504 218.721C164.224 218.721 168.657 217.5 171.867 215.161C174.262 213.381 175.943 210.889 175.943 207.787C175.943 206.719 176.809 205.804 177.93 205.804C179 205.804 179.918 206.668 179.918 207.787C179.918 212.313 177.574 215.822 174.262 218.314C170.287 221.264 164.937 222.688 160.504 222.688Z" fill="#D6C4C6"/>
<path fill-rule="evenodd" clip-rule="evenodd" d="M19.0564 74.4971C19.0564 75.5651 18.1904 76.4805 17.1204 76.4805C16.0503 76.4805 15.1843 75.6159 15.1843 74.4971C15.1843 69.8185 17.1204 65.5467 20.1776 62.4446C23.2858 59.3424 27.5149 57.4608 32.2538 57.4608C33.3237 57.4608 34.1899 58.3253 34.1899 59.4441C34.1899 60.5121 33.3237 61.4275 32.2538 61.4275C28.6359 61.4275 25.3239 62.9023 22.98 65.2924C20.5345 67.6318 19.0564 70.8865 19.0564 74.4971Z" fill="#D6C4C6"/>
<path fill-rule="evenodd" clip-rule="evenodd" d="M112.608 98.4494C111.742 97.4832 111.844 95.9576 112.812 95.093C113.78 94.2285 115.308 94.3302 116.175 95.2965C131.817 112.994 132.378 122.504 126.009 128.098C120.71 132.776 110.57 133.997 100.787 135.167C92.1245 136.184 83.7171 137.201 80.507 140.303C77.6026 143.151 79.386 148.745 90.443 160.085C91.3602 161.052 91.3602 162.526 90.392 163.442C89.4239 164.357 87.9463 164.357 87.0291 163.391C73.4754 149.508 72.2015 141.727 77.1441 136.896C81.5261 132.624 90.6978 131.556 100.175 130.437C109.245 129.369 118.62 128.25 122.799 124.589C127.079 120.775 125.805 113.401 112.608 98.4494Z" fill="#6D96D5"/>
<path fill-rule="evenodd" clip-rule="evenodd" d="M114.391 9.14874C123.359 9.14874 131.512 12.8103 137.422 18.6586C143.333 24.5069 146.951 32.6945 146.951 41.6449C146.951 53.0363 132.989 73.5308 123.053 88.1261C120.455 91.9402 118.111 95.3475 116.378 98.0936C115.665 99.2124 114.187 99.5684 113.066 98.8564C112.761 98.653 112.506 98.3987 112.302 98.0936C110.57 95.3475 108.277 91.9402 105.678 88.1261C95.7421 73.5308 81.7808 53.0363 81.7808 41.6449C81.7808 32.6436 85.4494 24.5577 91.3091 18.6586C97.2197 12.8103 105.372 9.14874 114.391 9.14874Z" fill="#EF3A48"/>
<path d="M114.391 22.8796C119.69 22.8796 124.531 25.0155 127.996 28.4736C131.461 31.9317 133.601 36.7629 133.601 42.0518C133.601 47.3407 131.461 52.1211 127.996 55.63C124.531 59.139 119.69 61.2749 114.391 61.2749C109.092 61.2749 104.251 59.139 100.786 55.63C97.3216 52.1719 95.1306 47.3407 95.1306 42.0518C95.1306 36.7629 97.2707 31.9826 100.786 28.4736C104.251 25.0664 109.041 22.8796 114.391 22.8796Z" fill="white"/>
<path fill-rule="evenodd" clip-rule="evenodd" d="M118.977 34.1185C119.894 33.2031 121.423 33.2031 122.34 34.1185C123.257 35.0339 123.257 36.5595 122.34 37.4749L109.703 50.0869C108.786 51.0023 107.258 51.0023 106.34 50.0869C105.423 49.1715 105.423 47.6459 106.34 46.7305L118.977 34.1185Z" fill="#464648"/>
<path fill-rule="evenodd" clip-rule="evenodd" d="M122.34 46.6797C123.257 47.5951 123.257 49.1207 122.34 50.0361C121.423 50.9515 119.894 50.9515 118.977 50.0361L106.34 37.4242C105.423 36.5088 105.423 34.9831 106.34 34.0677C107.258 33.1524 108.786 33.1524 109.703 34.0677L122.34 46.6797Z" fill="#464648"/>
</g>
<defs>
<clipPath id="clip0_327_9255">
<rect width="195" height="238" fill="white"/>
</clipPath>
</defs>
</svg>
