<svg width="20" height="20" viewBox="0 0 20 20" fill="none" xmlns="http://www.w3.org/2000/svg">
<path d="M16.7211 4.20508H3.27888C2.02228 4.20508 1 5.22736 1 6.48396V13.5176C1 14.7742 2.02228 15.7965 3.27888 15.7965H16.7211C17.9776 15.7965 18.9999 14.7742 18.9999 13.5176V6.48396C18.9999 5.22736 17.9776 4.20508 16.7211 4.20508ZM18.1935 7.4022H4.00805C3.78534 7.4022 3.60482 7.58271 3.60482 7.80543C3.60482 8.02815 3.78534 8.20866 4.00805 8.20866H18.1935V13.5176C18.1935 14.3295 17.533 14.9901 16.7211 14.9901H3.27888C2.467 14.9901 1.80646 14.3295 1.80646 13.5176V6.48396C1.80646 5.67203 2.467 5.01154 3.27888 5.01154H16.7211C17.5329 5.01154 18.1934 5.67207 18.1934 6.48396L18.1935 7.4022Z" fill="black"/>
<path d="M11.2693 10.0049H11.8395L12.9705 12.5313L14.097 10.0049H14.6625V13.2266H14.1341V11.0201L13.1513 13.2266H12.7851L11.7977 11.0201V13.2266H11.2693V10.0049Z" fill="black"/>
<path d="M8.20752 10.0049H10.4558V10.436H9.59818V13.2266H9.06973V10.436H8.20752V10.0049Z" fill="black"/>
<path d="M7.13235 12.5681H5.78341L5.55163 13.2263H5L6.15425 10H6.76614L7.92039 13.2263H7.36413L7.13235 12.5681ZM6.4602 10.6397L5.93174 12.137H6.98401L6.4602 10.6397Z" fill="black"/>
</svg>
