<svg width="28" height="28" viewBox="0 0 28 28" fill="none" xmlns="http://www.w3.org/2000/svg">
<circle opacity="0.3" cx="14" cy="14" r="14" fill="black"/>
<path d="M19.8183 13.4074H9.58632L12.6659 10.2316C12.7215 10.1762 12.7658 10.11 12.7963 10.0368C12.8268 9.96363 12.8428 9.88489 12.8435 9.80523C12.8442 9.72556 12.8295 9.64655 12.8002 9.57281C12.771 9.49907 12.7278 9.43208 12.6731 9.37575C12.6185 9.31941 12.5535 9.27486 12.482 9.24469C12.4105 9.21452 12.3339 9.19934 12.2567 9.20003C12.1794 9.20073 12.1031 9.21728 12.0321 9.24872C11.9611 9.28017 11.8969 9.32588 11.8432 9.38319L7.77045 13.5832C7.66137 13.6957 7.6001 13.8483 7.6001 14.0074C7.6001 14.1665 7.66137 14.3191 7.77045 14.4316L11.8432 18.6316C11.9529 18.7409 12.0999 18.8014 12.2525 18.8C12.405 18.7986 12.551 18.7355 12.6588 18.6243C12.7667 18.513 12.8279 18.3625 12.8292 18.2052C12.8305 18.0479 12.7719 17.8963 12.6659 17.7832L9.58632 14.6074H19.8183C19.9726 14.6074 20.1206 14.5442 20.2297 14.4316C20.3388 14.3191 20.4001 14.1665 20.4001 14.0074C20.4001 13.8483 20.3388 13.6956 20.2297 13.5831C20.1206 13.4706 19.9726 13.4074 19.8183 13.4074Z" fill="white"/>
</svg>
