<svg width="20" height="20" viewBox="0 0 20 20" fill="none" xmlns="http://www.w3.org/2000/svg">
<path d="M3.39144 6.24854H6.67648C6.76892 6.24854 6.86046 6.26674 6.94586 6.30212C7.03127 6.33749 7.10887 6.38934 7.17423 6.45471C7.2396 6.52007 7.29145 6.59767 7.32682 6.68308C7.3622 6.76848 7.3804 6.86002 7.3804 6.95246V9.53348C7.3804 9.72018 7.30624 9.89923 7.17423 10.0312C7.04221 10.1633 6.86316 10.2374 6.67647 10.2374H3.39142C3.20473 10.2374 3.02568 10.1633 2.89367 10.0312C2.76166 9.89924 2.6875 9.72019 2.6875 9.5335V6.95247C2.6875 6.86003 2.70571 6.76849 2.74108 6.68309C2.77646 6.59768 2.82831 6.52008 2.89368 6.45472C2.95904 6.38935 3.03665 6.3375 3.12205 6.30212C3.20746 6.26675 3.29899 6.24854 3.39144 6.24854Z" fill="#393939"/>
<path d="M10.1961 5.31014C10.844 5.31014 11.3692 4.78491 11.3692 4.137C11.3692 3.4891 10.844 2.96387 10.1961 2.96387C9.54818 2.96387 9.02295 3.4891 9.02295 4.137C9.02295 4.78491 9.54818 5.31014 10.1961 5.31014Z" fill="#393939"/>
<path d="M5.26904 10.9067C5.26911 11.271 5.41237 11.6207 5.66793 11.8804H9.48223V10.9055C9.48223 10.8435 9.45761 10.7841 9.4138 10.7403C9.36999 10.6965 9.31057 10.6719 9.24862 10.6719H5.50266C5.44057 10.6722 5.38113 10.697 5.33734 10.7411C5.29356 10.7851 5.269 10.8447 5.26904 10.9067Z" fill="#393939"/>
<path d="M16.9379 14.5447C16.8235 14.1217 16.567 13.751 16.2114 13.4949C15.8558 13.2388 15.4229 13.1129 14.9854 13.1384C15.0222 13.0013 15.0411 12.8601 15.0418 12.7182C15.0373 12.4932 14.9784 12.2727 14.8699 12.0755C14.7615 11.8784 14.6068 11.7105 14.4192 11.5863C13.9153 11.2521 13.5386 10.4021 13.4816 9.50796H13.931C14.1168 9.50803 14.295 9.43441 14.4266 9.30324C14.5582 9.17207 14.6323 8.99407 14.6329 8.80827V8.34232C14.6323 8.15654 14.5582 7.97855 14.4266 7.8474C14.295 7.71625 14.1168 7.64265 13.931 7.64275H12.3263C10.9695 7.25204 10.5614 6.80205 10.3175 6.53245C10.3124 6.52695 10.3075 6.52145 10.3027 6.51607C10.327 6.33618 10.2945 6.15319 10.2096 5.99274C10.1247 5.83229 9.99169 5.70244 9.82927 5.62138C9.71331 5.56603 9.58635 5.53756 9.45786 5.53809C9.32937 5.53862 9.20265 5.56814 9.08715 5.62445C8.97165 5.68075 8.87035 5.7624 8.79079 5.86329C8.71122 5.96419 8.65545 6.08174 8.62763 6.20718L7.9544 9.42398C7.93456 9.51953 7.93493 9.61817 7.95547 9.71357C7.97601 9.80897 8.01629 9.89902 8.0737 9.97794C8.13111 10.0568 8.20439 10.1229 8.28884 10.1718C8.37328 10.2207 8.46703 10.2514 8.56405 10.2619L9.71756 10.3896C9.77702 10.3959 9.83178 10.4248 9.87055 10.4703C9.90931 10.5158 9.92911 10.5745 9.92586 10.6342L9.74406 13.7092C9.5554 13.5443 9.42125 13.326 9.35937 13.0832C9.29749 12.8404 9.31079 12.5845 9.39751 12.3494H5.81114C5.43284 12.9761 4.82732 14.151 5.07232 14.9153C5.118 15.0592 5.19737 15.19 5.30382 15.297C5.41028 15.404 5.54075 15.484 5.68437 15.5304C5.78984 15.5626 5.90046 15.5746 6.0104 15.5658C6.03703 15.9453 6.20658 16.3005 6.48484 16.56C6.76311 16.8194 7.12939 16.9636 7.50983 16.9636C7.89026 16.9636 8.25654 16.8194 8.5348 16.5599C8.81306 16.3005 8.98259 15.9452 9.00922 15.5657L13.0307 15.5656C13.0697 15.5635 13.108 15.5536 13.1433 15.5366C13.1785 15.5195 13.21 15.4957 13.236 15.4664C13.2645 15.605 13.3108 15.7393 13.3737 15.8661C13.3913 15.903 13.4183 15.9346 13.452 15.9578C13.4857 15.981 13.5249 15.9949 13.5656 15.9982C13.6064 16.0015 13.6473 15.9941 13.6843 15.9766C13.7212 15.9592 13.753 15.9323 13.7763 15.8987C13.8036 15.8595 13.8332 15.8212 13.8644 15.7835C13.8956 15.9861 13.968 16.1802 14.077 16.3537C14.1861 16.5273 14.3295 16.6767 14.4984 16.7928C14.6674 16.9089 14.8584 16.9891 15.0595 17.0286C15.2607 17.068 15.4678 17.0659 15.6681 17.0223C15.8684 16.9787 16.0576 16.8946 16.2242 16.775C16.3907 16.6555 16.531 16.5032 16.6365 16.3274C16.7419 16.1516 16.8103 15.9561 16.8373 15.7529C16.8643 15.5497 16.8494 15.3431 16.7936 15.1459C16.8541 15.1393 16.9096 15.1091 16.948 15.0619C16.9864 15.0147 17.0046 14.9543 16.9988 14.8937C16.9899 14.7757 16.9695 14.6588 16.9379 14.5447ZM7.50974 16.4964C7.25341 16.4964 7.00622 16.4012 6.81614 16.2292C6.62605 16.0572 6.50663 15.8208 6.48104 15.5657L8.53856 15.5657C8.51295 15.8208 8.39351 16.0572 8.2034 16.2292C8.0133 16.4012 7.76609 16.4964 7.50974 16.4964ZM12.0585 13.9335H11.147L11.55 10.1232C11.5662 9.96888 11.5305 9.81358 11.4487 9.68173C11.3669 9.54988 11.2436 9.44897 11.0982 9.39488L9.94842 8.96581C9.89558 8.9462 9.85166 8.90807 9.82481 8.8585C9.79797 8.80894 9.79002 8.75132 9.80246 8.69634L9.97741 7.94202C10.5755 8.41893 11.2977 8.71466 12.0585 8.79425V13.9335ZM15.4808 16.5657C15.3251 16.5862 15.1669 16.571 15.0179 16.5213C14.869 16.4716 14.7333 16.3886 14.6212 16.2788C14.509 16.1689 14.4234 16.0349 14.3706 15.887C14.3179 15.7392 14.2994 15.5812 14.3167 15.4252L14.3882 15.3362C14.9255 15.0031 15.5657 14.8772 16.1891 14.982L16.2445 15.0248C16.3297 15.1721 16.3772 15.3383 16.3826 15.5084C16.3881 15.6786 16.3514 15.8474 16.2758 16C16.2002 16.1525 16.088 16.284 15.9493 16.3827C15.8106 16.4814 15.6497 16.5443 15.4808 16.5657Z" fill="#393939"/>
</svg>
