<svg width="15" height="16" viewBox="0 0 15 16" fill="none" xmlns="http://www.w3.org/2000/svg">
<path d="M1.39168 4.24854H4.67673C4.76917 4.24854 4.8607 4.26674 4.94611 4.30212C5.03151 4.33749 5.10911 4.38934 5.17447 4.45471C5.23984 4.52007 5.29169 4.59767 5.32707 4.68308C5.36244 4.76848 5.38065 4.86002 5.38065 4.95246V7.53348C5.38065 7.72018 5.30648 7.89923 5.17447 8.03124C5.04246 8.16326 4.86341 8.23742 4.67671 8.23742H1.39166C1.20497 8.23742 1.02593 8.16326 0.893918 8.03125C0.761907 7.89924 0.687744 7.72019 0.687744 7.5335V4.95247C0.687744 4.86003 0.705952 4.76849 0.741328 4.68309C0.776704 4.59768 0.828556 4.52008 0.893922 4.45472C0.959289 4.38935 1.03689 4.3375 1.1223 4.30212C1.2077 4.26675 1.29924 4.24854 1.39168 4.24854Z" fill="#DC4A4E"/>
<path d="M8.19609 3.31014C8.84399 3.31014 9.36922 2.78491 9.36922 2.137C9.36922 1.4891 8.84399 0.963867 8.19609 0.963867C7.54818 0.963867 7.02295 1.4891 7.02295 2.137C7.02295 2.78491 7.54818 3.31014 8.19609 3.31014Z" fill="#DC4A4E"/>
<path d="M3.26929 8.90674C3.26935 9.27105 3.41262 9.62073 3.66817 9.88036H7.48248V8.90548C7.48247 8.84353 7.45786 8.78411 7.41405 8.7403C7.37024 8.69649 7.31082 8.67188 7.24886 8.67188H3.5029C3.44082 8.67216 3.38137 8.69704 3.33759 8.74106C3.2938 8.78508 3.26924 8.84465 3.26929 8.90674Z" fill="#DC4A4E"/>
<path d="M14.9384 12.5447C14.824 12.1217 14.5674 11.751 14.2119 11.4949C13.8563 11.2388 13.4234 11.1129 12.9859 11.1384C13.0226 11.0013 13.0416 10.8601 13.0423 10.7182C13.0378 10.4932 12.9789 10.2727 12.8704 10.0755C12.762 9.87836 12.6073 9.71047 12.4197 9.58626C11.9158 9.25206 11.5391 8.40206 11.4821 7.50796H11.9315C12.1173 7.50803 12.2955 7.43441 12.4271 7.30324C12.5587 7.17207 12.6328 6.99407 12.6333 6.80827V6.34232C12.6328 6.15654 12.5586 5.97855 12.4271 5.8474C12.2955 5.71625 12.1172 5.64265 11.9315 5.64275H10.3267C8.97003 5.25204 8.56188 4.80205 8.31795 4.53245C8.31291 4.52695 8.30798 4.52145 8.30317 4.51607C8.32752 4.33618 8.29497 4.15319 8.21007 3.99274C8.12517 3.83229 7.99218 3.70244 7.82976 3.62138C7.7138 3.56603 7.58684 3.53756 7.45835 3.53809C7.32986 3.53862 7.20314 3.56814 7.08764 3.62445C6.97214 3.68075 6.87084 3.7624 6.79127 3.86329C6.71171 3.96419 6.65594 4.08174 6.62812 4.20718L5.95489 7.42398C5.93505 7.51953 5.93541 7.61817 5.95596 7.71357C5.9765 7.80897 6.01677 7.89902 6.07419 7.97794C6.1316 8.05685 6.20488 8.12288 6.28933 8.17179C6.37377 8.22071 6.46752 8.25141 6.56453 8.26194L7.71805 8.38958C7.77751 8.39588 7.83227 8.42478 7.87103 8.4703C7.9098 8.51582 7.9296 8.57449 7.92635 8.63419L7.74454 11.7092C7.55588 11.5443 7.42174 11.326 7.35986 11.0832C7.29798 10.8404 7.31128 10.5845 7.398 10.3494H3.81163C3.43333 10.9761 2.82781 12.151 3.07281 12.9153C3.11848 13.0592 3.19785 13.19 3.30431 13.297C3.41077 13.404 3.54124 13.484 3.68486 13.5304C3.79033 13.5626 3.90095 13.5746 4.01089 13.5658C4.03752 13.9453 4.20706 14.3005 4.48533 14.56C4.7636 14.8194 5.12988 14.9636 5.51032 14.9636C5.89075 14.9636 6.25703 14.8194 6.53529 14.5599C6.81355 14.3005 6.98308 13.9452 7.0097 13.5657L11.0312 13.5656C11.0702 13.5635 11.1085 13.5536 11.1437 13.5366C11.179 13.5195 11.2105 13.4957 11.2365 13.4664C11.265 13.605 11.3113 13.7393 11.3742 13.8661C11.3918 13.903 11.4188 13.9346 11.4525 13.9578C11.4862 13.981 11.5253 13.9949 11.5661 13.9982C11.6069 14.0015 11.6478 13.9941 11.6848 13.9766C11.7217 13.9592 11.7535 13.9323 11.7768 13.8987C11.8041 13.8595 11.8337 13.8212 11.8649 13.7835C11.8961 13.9861 11.9685 14.1802 12.0775 14.3537C12.1865 14.5273 12.33 14.6767 12.4989 14.7928C12.6679 14.9089 12.8588 14.9891 13.06 15.0286C13.2612 15.068 13.4683 15.0659 13.6685 15.0223C13.8688 14.9787 14.0581 14.8946 14.2246 14.775C14.3912 14.6555 14.5315 14.5032 14.637 14.3274C14.7424 14.1516 14.8107 13.9561 14.8378 13.7529C14.8648 13.5497 14.8499 13.3431 14.7941 13.1459C14.8546 13.1393 14.9101 13.1091 14.9485 13.0619C14.9869 13.0147 15.0051 12.9543 14.9993 12.8937C14.9904 12.7757 14.97 12.6588 14.9384 12.5447ZM5.51023 14.4964C5.2539 14.4964 5.00671 14.4012 4.81663 14.2292C4.62654 14.0572 4.50712 13.8208 4.48152 13.5657L6.53905 13.5657C6.51344 13.8208 6.394 14.0572 6.20389 14.2292C6.01379 14.4012 5.76658 14.4964 5.51023 14.4964ZM10.059 11.9335H9.14749L9.55053 8.1232C9.56664 7.96888 9.531 7.81358 9.4492 7.68173C9.3674 7.54988 9.24409 7.44897 9.09866 7.39488L7.94891 6.96581C7.89607 6.9462 7.85215 6.90807 7.8253 6.8585C7.79845 6.80894 7.79051 6.75132 7.80295 6.69634L7.9779 5.94202C8.57602 6.41893 9.29817 6.71466 10.059 6.79425V11.9335ZM13.4813 14.5657C13.3256 14.5862 13.1673 14.571 13.0184 14.5213C12.8695 14.4716 12.7338 14.3886 12.6217 14.2788C12.5095 14.1689 12.4238 14.0349 12.3711 13.887C12.3184 13.7392 12.2999 13.5812 12.3172 13.4252L12.3887 13.3362C12.926 13.0031 13.5662 12.8772 14.1896 12.982L14.245 13.0248C14.3302 13.1721 14.3777 13.3383 14.3831 13.5084C14.3886 13.6786 14.3519 13.8474 14.2763 14C14.2007 14.1525 14.0885 14.284 13.9498 14.3827C13.8111 14.4814 13.6502 14.5443 13.4813 14.5657Z" fill="#DC4A4E"/>
</svg>
