<svg width="20" height="20" viewBox="0 0 20 20" fill="none" xmlns="http://www.w3.org/2000/svg">
<path d="M10.0819 10.1634H10.1612C10.289 10.1634 10.3925 10.0599 10.3925 9.93222V8.84202C10.3925 8.71438 10.289 8.61082 10.1612 8.61082H4.52419C4.39645 8.61082 4.29299 8.71438 4.29299 8.84202V9.93222C4.29299 10.0599 4.39645 10.1634 4.52419 10.1634H10.0819Z" fill="#EE4B2A"/>
<path d="M10.1404 8.25943V3.83117C10.1404 3.63712 9.98313 3.47983 9.78898 3.47983H4.89645C4.7024 3.47983 4.54511 3.63712 4.54511 3.83117V8.25943C4.54511 8.45348 4.7024 8.61087 4.89645 8.61087H9.78898C9.98313 8.61087 10.1404 8.45348 10.1404 8.25943Z" fill="#63334C"/>
<path d="M18.7474 12.8153C18.6402 12.0917 18.1493 10.1893 15.9447 10.1001C15.8462 10.0961 15.7593 10.0342 15.7254 9.94166L14.1487 5.6309C14.133 5.5878 14.1306 5.54411 14.1384 5.50325L14.3759 5.30598C14.5137 5.30598 14.6236 5.19092 14.6174 5.05323L14.57 4.00652C14.5643 3.87732 14.4578 3.77561 14.3286 3.77561H13.2616C13.1745 3.77561 13.094 3.82242 13.0511 3.89828L12.4857 4.89731C12.4657 4.93261 12.4549 4.97239 12.4544 5.01296L12.2918 12.3871C12.2898 12.5192 12.1822 12.6254 12.0499 12.6254H10.3238C10.1902 12.6254 10.082 12.5171 10.082 12.3836V10.1391C10.082 10.0055 9.97372 9.89729 9.84013 9.89729H5.82025C5.8068 9.89729 5.79353 9.89827 5.78027 9.90061C5.54517 9.94098 3.41099 10.3916 3.29944 13.4387C3.29437 13.5758 3.40397 13.6901 3.54127 13.6901H3.79793C3.79412 13.628 3.79159 13.5657 3.79159 13.5027C3.79159 11.8399 5.13961 10.492 6.80231 10.492C8.4652 10.492 9.81312 11.8399 9.81312 13.5027C9.81312 13.5657 9.81059 13.628 9.80668 13.6901H12.309C12.3052 13.628 12.3025 13.5657 12.3025 13.5027C12.3025 11.8399 13.6506 10.492 15.3133 10.492C16.8369 10.492 18.0953 11.6239 18.2955 13.0925C18.2999 13.0922 18.3041 13.0912 18.3086 13.0912H18.508C18.6551 13.0912 18.7689 12.9608 18.7474 12.8153Z" fill="#EE4B2A"/>
<path d="M6.80235 10.492C5.13955 10.492 3.79163 11.8399 3.79163 13.5027C3.79163 13.5657 3.79417 13.628 3.79797 13.69H9.80673C9.81053 13.628 9.81306 13.5657 9.81306 13.5027C9.81306 11.8399 8.46514 10.492 6.80235 10.492Z" fill="#EE4B2A"/>
<mask id="mask0_830_5407" style="mask-type:luminance" maskUnits="userSpaceOnUse" x="3" y="10" width="7" height="4">
<path d="M3.79157 10.492H9.8131V13.69H3.79157V10.492Z" fill="white"/>
</mask>
<g mask="url(#mask0_830_5407)">
<g opacity="0.240005">
<path d="M6.80263 10.4921C5.13983 10.4921 3.79191 11.8401 3.79191 13.5029C3.79191 13.5659 3.79444 13.6282 3.79825 13.6902H9.807C9.81081 13.6282 9.81334 13.5659 9.81334 13.5029C9.81334 11.8401 8.46542 10.4921 6.80263 10.4921Z" fill="#63334C"/>
</g>
</g>
<path d="M15.3134 10.492C13.6506 10.492 12.3026 11.8399 12.3026 13.5027C12.3026 13.5657 12.3051 13.628 12.3089 13.69H17.8249C17.9585 13.69 18.0667 13.5818 18.0667 13.4482V13.3329C18.0667 13.2039 18.1682 13.0994 18.2955 13.0925C18.0953 11.6238 16.8369 10.492 15.3134 10.492Z" fill="#EE4B2A"/>
<mask id="mask1_830_5407" style="mask-type:luminance" maskUnits="userSpaceOnUse" x="12" y="10" width="7" height="4">
<path d="M12.3026 10.492H18.2956V13.69H12.3026V10.492Z" fill="white"/>
</mask>
<g mask="url(#mask1_830_5407)">
<g opacity="0.240005">
<path d="M15.3132 10.4921C13.6504 10.4921 12.3024 11.84 12.3024 13.5028C12.3024 13.5658 12.3049 13.6281 12.3088 13.6902H17.8248C17.9584 13.6902 18.0666 13.5819 18.0666 13.4483V13.3331C18.0666 13.2041 18.168 13.0995 18.2954 13.0926C18.0952 11.6239 16.8368 10.4921 15.3132 10.4921Z" fill="#63334C"/>
</g>
</g>
<path d="M6.94601 10.7625C6.92495 10.758 6.9031 10.7554 6.88068 10.7554H6.75849H4.74114C4.57117 10.7554 4.43319 10.8933 4.43319 11.0634C4.43319 11.2102 4.53627 11.3329 4.67386 11.3637H4.96981C4.99019 11.3637 5.00998 11.3658 5.02919 11.3695C5.03192 11.37 5.03446 11.3706 5.03719 11.3712C5.17478 11.402 5.27776 11.5246 5.27776 11.6716C5.27776 11.8039 5.19409 11.9164 5.07688 11.96C5.04343 11.9724 5.00755 11.9794 4.96981 11.9794H4.47425H3.143C3.02579 12.023 2.94202 12.1355 2.94202 12.2679C2.94202 12.3985 3.02364 12.5099 3.13851 12.5546H4.02715C4.06654 12.5546 4.10399 12.5623 4.13861 12.5758H4.17469C4.17303 12.5805 4.17147 12.5852 4.16991 12.5898C4.26801 12.6413 4.3351 12.744 4.3351 12.8626C4.3351 13.0298 4.2015 13.1657 4.03534 13.17C4.03524 13.1706 4.03515 13.1712 4.03505 13.1718C4.03027 13.1715 4.02549 13.171 4.02062 13.171H2.11102C1.94095 13.171 1.80307 13.3088 1.80307 13.4789C1.80307 13.6489 1.94095 13.7868 2.11102 13.7868H3.41389H4.02062C4.02383 13.7868 4.02686 13.7864 4.03007 13.7863C4.03007 13.7865 4.03007 13.7866 4.03007 13.7868H4.34494C4.51501 13.7868 4.65279 13.9247 4.65279 14.0948C4.65279 14.2647 4.51501 14.4026 4.34494 14.4026H4.16806H4.01789C3.84782 14.4026 3.70994 14.5405 3.70994 14.7105C3.70994 14.8805 3.84782 15.0185 4.01789 15.0185H4.47434C4.47434 15.0185 4.47454 15.0188 4.47473 15.019H5.40189C5.57195 15.019 5.70984 15.1568 5.70984 15.3269C5.70984 15.4932 5.578 15.6282 5.4132 15.6342H5.0367H4.75723C4.75343 15.6342 4.74972 15.6347 4.74592 15.6348C4.58112 15.6407 4.44928 15.7759 4.44928 15.9422C4.44928 16.1121 4.58717 16.25 4.75723 16.25H6.66693C6.69092 16.25 6.71422 16.247 6.73675 16.2417C6.74396 16.2418 6.75108 16.2423 6.75849 16.2423C8.27365 16.2423 9.50183 15.0141 9.50183 13.499C9.50183 12.0468 8.3736 10.8591 6.94601 10.7625Z" fill="#63334C"/>
<path d="M3.50148 14.6899C3.50148 14.52 3.3636 14.3821 3.19364 14.3821H1.77394C1.60388 14.3821 1.466 14.52 1.466 14.6899C1.466 14.86 1.60388 14.9979 1.77394 14.9979H3.19364C3.3636 14.9979 3.50148 14.86 3.50148 14.6899Z" fill="#63334C"/>
<path d="M3.89691 15.6342H3.38019C3.21013 15.6342 3.07224 15.7721 3.07224 15.9422C3.07224 16.1121 3.21013 16.25 3.38019 16.25H3.89691C4.06697 16.25 4.20486 16.1121 4.20486 15.9422C4.20486 15.7721 4.06697 15.6342 3.89691 15.6342Z" fill="#63334C"/>
<path d="M2.68924 11.3637H3.9691C4.10425 11.3311 4.20479 11.2097 4.20479 11.0646C4.20479 10.8945 4.067 10.7567 3.89694 10.7567H2.7614C2.59143 10.7567 2.45355 10.8945 2.45355 11.0646C2.45355 11.2097 2.55408 11.3311 2.68924 11.3637Z" fill="#63334C"/>
<path d="M2.00592 12.5758H2.35882C2.39822 12.5758 2.43566 12.5681 2.47028 12.5546C2.58515 12.51 2.66667 12.3986 2.66667 12.2678C2.66667 12.0979 2.52888 11.96 2.35882 11.96H1.55795C1.38788 11.96 1.25 12.0979 1.25 12.2678C1.25 12.4379 1.38788 12.5758 1.55795 12.5758H2.00592Z" fill="#63334C"/>
<path d="M9.54962 13.5028C9.54962 15.0201 8.31959 16.25 6.80238 16.25C5.28508 16.25 4.05505 15.0201 4.05505 13.5028C4.05505 11.9855 5.28508 10.7554 6.80238 10.7554C8.31959 10.7554 9.54962 11.9855 9.54962 13.5028Z" fill="#63334C"/>
<path d="M8.02664 13.5027C8.02664 14.1789 7.47852 14.727 6.80236 14.727C6.1262 14.727 5.57808 14.1789 5.57808 13.5027C5.57808 12.8266 6.1262 12.2784 6.80236 12.2784C7.47852 12.2784 8.02664 12.8266 8.02664 13.5027Z" fill="#E9E7DE"/>
<path fill-rule="evenodd" clip-rule="evenodd" d="M5.50193 13.5028C5.50193 14.221 6.08415 14.8032 6.80237 14.8032C7.52059 14.8032 8.1028 14.221 8.1028 13.5028C8.1028 12.7845 7.52059 12.2022 6.80237 12.2022C6.08414 12.2022 5.50193 12.7845 5.50193 13.5028ZM6.80237 14.6509C6.16827 14.6509 5.65425 14.1369 5.65425 13.5028C5.65425 12.8687 6.16828 12.3545 6.80237 12.3545C7.43646 12.3545 7.95049 12.8687 7.95049 13.5028C7.95049 14.1369 7.43646 14.6509 6.80237 14.6509Z" fill="#EE4B2A"/>
<path d="M18.0606 13.5028C18.0606 15.0201 16.8307 16.25 15.3134 16.25C13.7962 16.25 12.566 15.0201 12.566 13.5028C12.566 11.9855 13.7962 10.7554 15.3134 10.7554C16.8307 10.7554 18.0606 11.9855 18.0606 13.5028Z" fill="#63334C"/>
<path d="M16.5376 13.5027C16.5376 14.1789 15.9895 14.727 15.3133 14.727C14.6372 14.727 14.0891 14.1789 14.0891 13.5027C14.0891 12.8266 14.6372 12.2784 15.3133 12.2784C15.9895 12.2784 16.5376 12.8266 16.5376 13.5027Z" fill="#E9E7DE"/>
<path fill-rule="evenodd" clip-rule="evenodd" d="M14.0129 13.5028C14.0129 14.221 14.5951 14.8032 15.3133 14.8032C16.0316 14.8032 16.6138 14.221 16.6138 13.5028C16.6138 12.7845 16.0316 12.2022 15.3133 12.2022C14.5951 12.2022 14.0129 12.7845 14.0129 13.5028ZM15.3133 14.6509C14.6792 14.6509 14.1652 14.1369 14.1652 13.5028C14.1652 12.8687 14.6793 12.3545 15.3133 12.3545C15.9474 12.3545 16.4615 12.8687 16.4615 13.5028C16.4615 14.1369 15.9474 14.6509 15.3133 14.6509Z" fill="#EE4B2A"/>
<path d="M15.0893 5.54465C14.5042 5.54465 14.03 5.07034 14.03 4.48526C14.03 3.90019 14.5042 3.42588 15.0893 3.42588" fill="#EE4B2A"/>
<path d="M14.7841 3.42591V5.54468C15.3692 5.54468 15.8435 5.07037 15.8435 4.4853C15.8435 3.90022 15.3692 3.42591 14.7841 3.42591ZM14.9665 3.62728C15.3629 3.71143 15.6611 4.06414 15.6611 4.4853C15.6611 4.90636 15.3629 5.25916 14.9665 5.34331V3.62728Z" fill="#63334C"/>
<path d="M15.2056 5.68301H14.6289V3.33197H15.2056V5.68301Z" fill="#E03F28"/>
<path d="M13.298 4.7515H11.2714C11.1367 4.7515 11.0274 4.64228 11.0274 4.50752C11.0274 4.37275 11.1367 4.26354 11.2714 4.26354H13.298C13.4326 4.26354 13.542 4.37275 13.542 4.50752C13.542 4.64228 13.4326 4.7515 13.298 4.7515Z" fill="#E03F28"/>
<path d="M12.1003 4.86237H11.3158C11.1198 4.86237 10.9609 4.70352 10.9609 4.50752C10.9609 4.31151 11.1198 4.15267 11.3158 4.15267H12.1003C12.2964 4.15267 12.4552 4.31151 12.4552 4.50752C12.4552 4.70352 12.2964 4.86237 12.1003 4.86237Z" fill="#63334C"/>
<path fill-rule="evenodd" clip-rule="evenodd" d="M6.27641 7.90877C6.30708 7.93034 6.34889 7.92638 6.37496 7.89944L8.73127 5.46414C8.75253 5.44217 8.75859 5.40961 8.74665 5.38146C8.73472 5.35331 8.70711 5.33503 8.67653 5.33503H7.65815L8.37848 4.79143C8.40461 4.77171 8.41522 4.7375 8.40482 4.70645C8.39442 4.67541 8.36534 4.65449 8.33261 4.65449H7.01286C6.98602 4.65449 6.96116 4.66861 6.94743 4.69167L5.96625 6.33916C5.95039 6.3658 5.95226 6.3994 5.97098 6.42412C5.98971 6.44884 6.02155 6.45973 6.0515 6.45166L7.05431 6.18151L6.25189 7.81287C6.23534 7.84651 6.24574 7.8872 6.27641 7.90877ZM6.60244 7.44529L7.26521 6.09785C7.27841 6.07101 7.27468 6.03894 7.25568 6.01585C7.23669 5.99276 7.20593 5.98292 7.17706 5.9907L6.19322 6.25574L7.05615 4.8068H8.10526L7.38493 5.3504C7.3588 5.37012 7.34819 5.40433 7.35859 5.43538C7.36899 5.46642 7.39807 5.48734 7.4308 5.48734H8.49688L6.60244 7.44529Z" fill="#E9E7DE"/>
</svg>
