<svg width="37" height="36" viewBox="0 0 37 36" fill="none" xmlns="http://www.w3.org/2000/svg">
<path d="M20.5976 13.3976H16.4008C14.6626 13.3976 12.0487 11.9278 11.0834 10.9558C9.725 9.58727 9.725 7.35808 11.0851 5.98952C12.4064 4.65976 14.7116 4.65976 16.0346 5.98952C16.7653 6.72527 18.7059 9.71383 18.4393 11.7085H18.5591C18.2924 9.71383 20.2331 6.72527 20.9654 5.98952C22.2851 4.65976 24.5902 4.65639 25.9149 5.98952C27.2767 7.35808 27.2767 9.58558 25.9149 10.9541C24.9496 11.9261 22.3357 13.3976 20.5976 13.3976ZM20.5976 11.7101C21.7636 11.7101 23.9911 10.4985 24.7168 9.76614C25.4255 9.05402 25.4255 7.89302 24.7168 7.18089C24.0316 6.4907 22.8419 6.49408 22.1602 7.18089C21.0228 8.32502 19.8922 11.2478 20.2854 11.6545C20.2871 11.6545 20.3579 11.7101 20.5976 11.7101ZM13.5607 6.64764C13.0781 6.64764 12.6241 6.83664 12.2816 7.18089C11.5745 7.89302 11.5745 9.05402 12.2816 9.76614C13.0089 10.4985 15.2347 11.7101 16.4008 11.7101C16.6421 11.7101 16.7129 11.6561 16.7129 11.6561C17.1061 11.2461 15.9755 8.32333 14.8381 7.18089C14.4956 6.83664 14.0416 6.64764 13.5607 6.64764Z" fill="#63334C"/>
<path d="M6.6875 16.7727V28.5852C6.6875 29.5167 7.44519 30.2727 8.375 30.2727H28.625C29.5565 30.2727 30.3125 29.5167 30.3125 28.5852V16.7727H6.6875Z" fill="#FF5532"/>
<path d="M30.3125 11.7101H6.6875C5.75769 11.7101 5 12.4678 5 13.3976V17.6164C5 18.0822 5.378 18.4602 5.84375 18.4602H31.1563C31.622 18.4602 32 18.0822 32 17.6164V13.3976C32 12.4661 31.244 11.7101 30.3125 11.7101Z" fill="#FF7559"/>
<path d="M20.1875 11.7101H16.8125V30.2727H20.1875V11.7101Z" fill="#63334C"/>
</svg>
