<svg width="40" height="40" viewBox="0 0 40 40" fill="none" xmlns="http://www.w3.org/2000/svg">
<path d="M18.3335 25.0002H21.6668V28.3335H18.3335V25.0002ZM18.3335 11.6668H21.6668V21.6668H18.3335V11.6668ZM20.0002 3.3335C10.7835 3.3335 3.3335 10.8335 3.3335 20.0002C3.3335 24.4204 5.08944 28.6597 8.21505 31.7853C9.76269 33.3329 11.6 34.5606 13.6221 35.3982C15.6442 36.2357 17.8115 36.6668 20.0002 36.6668C24.4204 36.6668 28.6597 34.9109 31.7853 31.7853C34.9109 28.6597 36.6668 24.4204 36.6668 20.0002C36.6668 17.8115 36.2357 15.6442 35.3982 13.6221C34.5606 11.6 33.3329 9.76269 31.7853 8.21505C30.2376 6.66741 28.4003 5.43975 26.3782 4.60217C24.3561 3.76459 22.1889 3.3335 20.0002 3.3335ZM20.0002 33.3335C16.4639 33.3335 13.0726 31.9287 10.5721 29.4283C8.07159 26.9278 6.66683 23.5364 6.66683 20.0002C6.66683 16.4639 8.07159 13.0726 10.5721 10.5721C13.0726 8.07159 16.4639 6.66683 20.0002 6.66683C23.5364 6.66683 26.9278 8.07159 29.4283 10.5721C31.9287 13.0726 33.3335 16.4639 33.3335 20.0002C33.3335 23.5364 31.9287 26.9278 29.4283 29.4283C26.9278 31.9287 23.5364 33.3335 20.0002 33.3335Z" fill="#000"/>
</svg>
