<svg width="25" height="24" viewBox="0 0 25 24" fill="none" xmlns="http://www.w3.org/2000/svg">
<g clip-path="url(#clip0_158_5079)">
<path opacity="0.2" d="M15.757 24.0001C15.5649 24.0002 15.3731 23.9834 15.184 23.9501L5.09998 22.1711C4.21807 22.0076 3.43716 21.5006 2.92882 20.7617C2.42048 20.0227 2.22631 19.1121 2.38898 18.2301L3.48898 11.9721C3.50753 11.8663 3.5336 11.7621 3.56698 11.6601C3.10457 11.3192 2.74517 10.8574 2.52833 10.3255C2.31149 9.7935 2.24562 9.21204 2.33798 8.64506L2.59998 7.17206C2.74743 6.43569 3.14964 5.77483 3.73596 5.30556C4.32227 4.83629 5.05519 4.58862 5.80598 4.60606C6.01217 4.60591 6.21797 4.62398 6.42098 4.66006L6.59998 4.69206C6.62776 4.09779 6.79007 3.51757 7.07467 2.99514C7.35927 2.4727 7.75874 2.02168 8.24298 1.67606C8.6957 1.3349 9.2193 1.09981 9.77508 0.988169C10.3309 0.876528 10.9046 0.891187 11.454 1.03106C12.3549 1.28352 13.1661 1.78548 13.794 2.47906C14.5025 2.1131 15.2857 1.915 16.083 1.90006C16.216 1.90006 16.349 1.90706 16.483 1.92006C17.0473 1.97805 17.5915 2.16131 18.0759 2.45646C18.5603 2.75161 18.9727 3.1512 19.283 3.62606C19.6204 4.11541 19.8422 4.67498 19.9318 5.26258C20.0213 5.85017 19.9763 6.45043 19.8 7.01806L19.932 7.04106C20.7799 7.1667 21.5435 7.62303 22.0559 8.31023C22.5682 8.99742 22.7876 9.85956 22.666 10.7081L22.406 12.1821C22.299 12.7471 22.0378 13.2716 21.6513 13.6974C21.2648 14.1233 20.768 14.4339 20.216 14.5951C20.2129 14.7017 20.2019 14.808 20.183 14.9131L19.083 21.1731C18.9513 21.961 18.5452 22.6769 17.9365 23.1943C17.3278 23.7116 16.5558 23.9971 15.757 24.0001Z" fill="#1A1A1A"/>
<path d="M15.757 23.086C15.5649 23.0861 15.3732 23.0694 15.184 23.036L5.10004 21.257C4.21887 21.0926 3.43894 20.5853 2.93143 19.8464C2.42391 19.1075 2.23028 18.1975 2.39304 17.316L3.49304 11.058C3.51159 10.9523 3.53766 10.848 3.57104 10.746C3.1079 10.4056 2.74772 9.94405 2.53016 9.41206C2.3126 8.88008 2.24612 8.29836 2.33804 7.73101L2.60004 6.25801C2.74749 5.52164 3.1497 4.86078 3.73602 4.39151C4.32233 3.92224 5.05525 3.67457 5.80604 3.69201C6.01221 3.69233 6.21797 3.7104 6.42104 3.74601L6.60004 3.77801C6.62775 3.18386 6.79004 2.60376 7.07465 2.08148C7.35927 1.5592 7.75877 1.10837 8.24304 0.76301C8.69558 0.421479 9.21914 0.186092 9.77496 0.0742705C10.3308 -0.0375511 10.9046 -0.0229442 11.454 0.11701C12.3549 0.369467 13.1661 0.87143 13.794 1.56501C14.5024 1.19836 15.2856 0.999562 16.083 0.98401C16.216 0.98401 16.349 0.99101 16.483 1.00401C17.0473 1.062 17.5915 1.24526 18.0759 1.54041C18.5604 1.83555 18.9728 2.23514 19.283 2.71001C19.6201 3.19911 19.8418 3.75835 19.9313 4.34556C20.0209 4.93278 19.976 5.53266 19.8 6.10001L19.932 6.12401C20.78 6.24916 21.5438 6.70522 22.0562 7.39232C22.5686 8.07942 22.7879 8.94158 22.666 9.79001L22.406 11.264C22.299 11.8291 22.0378 12.3535 21.6513 12.7794C21.2648 13.2052 20.7681 13.5159 20.216 13.677C20.213 13.7837 20.2019 13.89 20.183 13.995L19.083 20.255C18.9522 21.0437 18.5465 21.7605 17.9377 22.2787C17.329 22.7969 16.5565 23.0829 15.757 23.086Z" fill="#F2F2F2"/>
<path d="M18.379 13.6839L17.279 19.9419C17.2473 20.1438 17.1762 20.3374 17.0696 20.5118C16.963 20.6861 16.8231 20.8377 16.6579 20.9579C16.4926 21.0781 16.3053 21.1645 16.1066 21.2122C15.9079 21.2599 15.7018 21.268 15.5 21.2359L5.41299 19.4569C5.00924 19.3769 4.65368 19.1401 4.42424 18.7984C4.1948 18.4567 4.1102 18.0379 4.18899 17.6339L5.28899 11.3759C5.29876 11.3201 5.31947 11.2668 5.34992 11.219C5.38037 11.1712 5.41997 11.1299 5.46643 11.0975C5.5129 11.0651 5.56531 11.0421 5.62067 11.03C5.67603 11.0179 5.73323 11.0169 5.78899 11.0269L18.03 13.1849C18.0857 13.1947 18.1389 13.2154 18.1867 13.2458C18.2344 13.2762 18.2756 13.3157 18.308 13.362C18.3405 13.4084 18.3634 13.4607 18.3756 13.5159C18.3878 13.5712 18.3889 13.6283 18.379 13.6839ZM20.861 9.47794L20.6 10.9509C20.5082 11.3112 20.2786 11.6209 19.9606 11.8134C19.6426 12.0059 19.2617 12.0657 18.9 11.9799L5.38899 9.59995C5.01848 9.55814 4.67938 9.37198 4.4452 9.08184C4.21102 8.79169 4.10064 8.42093 4.13799 8.04995L4.39999 6.57494C4.49152 6.21459 4.72111 5.90469 5.03918 5.71216C5.35725 5.51964 5.73828 5.45993 6.09999 5.54595L9.17799 6.08895C8.84961 5.6218 8.61214 5.09698 8.47799 4.54194C8.36782 4.11873 8.38909 3.672 8.53895 3.26116C8.68882 2.85032 8.96019 2.49482 9.31699 2.24195C9.55325 2.05879 9.82824 1.93204 10.121 1.87138C10.4137 1.81072 10.7164 1.81776 11.006 1.89195C12.0175 2.29256 12.8536 3.03971 13.365 3.99995C14.1727 3.27175 15.213 2.85456 16.3 2.82295C16.5974 2.85261 16.8841 2.94972 17.1383 3.10689C17.3925 3.26406 17.6075 3.47715 17.767 3.72995C18.0156 4.09006 18.1488 4.51732 18.1488 4.95495C18.1488 5.39257 18.0156 5.81983 17.767 6.17994C17.4509 6.65512 17.0482 7.0666 16.58 7.39295L19.611 7.92795C19.9815 7.96949 20.3207 8.15562 20.5548 8.44586C20.7888 8.73611 20.8989 9.10701 20.861 9.47794ZM13.533 6.85595L14.381 7.00595C15.3407 6.7704 16.1805 6.19073 16.741 5.37695C16.8255 5.24576 16.8677 5.09184 16.8619 4.93592C16.8562 4.78 16.8028 4.62959 16.709 4.50495C16.6519 4.40718 16.5725 4.32431 16.4773 4.26313C16.382 4.20195 16.2736 4.16419 16.161 4.15295C15.2654 4.27179 14.4348 4.68515 13.8 5.32795L13.533 6.85595ZM11.4 6.47995L12.23 6.62595L12.5 5.09995C12.1 4.36494 11.355 3.35895 10.686 3.18895L10.627 3.17695C10.5253 3.15971 10.421 3.16473 10.3214 3.19166C10.2218 3.21859 10.1292 3.26679 10.05 3.33295C9.9195 3.41792 9.81814 3.54078 9.7595 3.68504C9.70087 3.82929 9.68778 3.98803 9.72199 4.13995C9.97065 5.10158 10.569 5.93593 11.4 6.47995Z" fill="#D13136"/>
</g>
<defs>
<clipPath id="clip0_158_5079">
<rect width="24" height="24" fill="white" transform="translate(0.5)"/>
</clipPath>
</defs>
</svg>
