<svg width="48" height="48" viewBox="0 0 48 48" fill="none" xmlns="http://www.w3.org/2000/svg">
<path d="M8.28003 23.0799C8.33336 22.6266 8.3867 22.1732 8.45336 21.7199C8.89336 18.7599 10.08 16.1332 12.0267 13.8532C14.2134 11.2799 16.96 9.57323 20.24 8.74656C22.8 8.10656 25.36 8.14656 27.9067 8.7999C28.5734 8.97323 29.24 9.1599 29.9467 9.3599C29.8667 9.45323 29.8267 9.5199 29.7734 9.57323C29.0534 10.2932 28.3334 10.9999 27.6267 11.7199C27.4934 11.8532 27.3734 11.8799 27.2 11.8399C25.76 11.4532 24.28 11.3466 22.8 11.4799C21.0534 11.6399 19.4 12.1732 17.88 13.0399C15.8667 14.1866 14.2667 15.7599 13.1067 17.7732C12.28 19.2266 11.7467 20.7732 11.5334 22.4399C11.2 25.0799 11.6667 27.5732 12.92 29.9066C14.16 32.2266 15.9734 33.9999 18.3334 35.2132C19.7067 35.9199 21.16 36.3599 22.7067 36.5199C24.9067 36.7466 27.0267 36.4132 29.04 35.5199C31.2267 34.5466 33 33.0799 34.3467 31.1199C35.4934 29.4532 36.2267 27.6266 36.4667 25.5999C36.5334 25.0799 36.56 24.5599 36.6134 24.0266H39.7467C39.6934 24.7199 39.6667 25.3999 39.5734 26.0799C39.2134 28.7732 38.2267 31.2266 36.5734 33.3866C34.0667 36.6932 30.7734 38.7466 26.6667 39.4799C26.08 39.5866 25.4934 39.6399 24.92 39.7199H23.08C22.9867 39.7066 22.9067 39.6799 22.8134 39.6666C21.96 39.5332 21.0934 39.4532 20.2534 39.2532C16.9334 38.4399 14.1734 36.6932 11.9734 34.0799C10.0667 31.8132 8.88003 29.1999 8.45336 26.2532C8.3867 25.8132 8.33336 25.3599 8.28003 24.9199C8.28003 24.3066 8.28003 23.6932 8.28003 23.0799Z" fill="#688D86"/>
<path d="M22.3867 30.2136C20.0667 27.8936 17.7333 25.5602 15.4133 23.2402C16.1333 22.5336 16.8533 21.8269 17.6 21.1069C19.16 22.6669 20.7733 24.2802 22.3867 25.9069C26.92 21.3736 31.4133 16.8802 35.88 12.4136C36.6267 13.1602 37.3467 13.8802 38.04 14.5736C32.8533 19.7602 27.6267 24.9869 22.4 30.2136H22.3867Z" fill="#688D86"/>
</svg>
