<svg width="34" height="34" viewBox="0 0 34 34" fill="none" xmlns="http://www.w3.org/2000/svg">
<path d="M2.00691 14.0791L0.125753 18.7228C-0.229388 19.5995 0.193421 20.5981 1.07005 20.9532L2.00691 21.3327V14.0791Z" fill="#FBD077"/>
<path d="M18.8794 7.35565L8.31242 3.07497C7.43573 2.71983 6.43718 3.14264 6.08203 4.01927L4.73047 7.35565H18.8794Z" fill="#FBD077"/>
<path d="M5.23031 6.12207L4.73047 7.3559H18.8794L15.8335 6.12207H5.23031Z" fill="#FFC54F"/>
<path d="M15.1206 26.6445L25.6876 30.9252C26.5643 31.2804 27.5628 30.8575 27.918 29.9809L29.2695 26.6445H15.1206Z" fill="#FBD077"/>
<path d="M28.7697 27.8784L29.2695 26.6445H15.1206L18.1665 27.8784H28.7697Z" fill="#FFC54F"/>
<path d="M32.93 13.0475L31.9932 12.668V19.9216L33.8743 15.2779C34.2295 14.4012 33.8067 13.4026 32.93 13.0475Z" fill="#FBD077"/>
<path d="M30.2803 26.6445H3.71952C2.77363 26.6445 2.00684 25.8777 2.00684 24.9318V9.06815C2.00684 8.12226 2.77363 7.35547 3.71952 7.35547H30.2804C31.2262 7.35547 31.993 8.12226 31.993 9.06815V24.9318C31.993 25.8777 31.2262 26.6445 30.2803 26.6445Z" fill="#255D54"/>
<path d="M30.2803 25.4109H3.71952C2.77363 25.4109 2.00684 24.6441 2.00684 23.6982V24.9321C2.00684 25.878 2.77363 26.6448 3.71952 26.6448H30.2804C31.2262 26.6448 31.993 25.878 31.993 24.9321V23.6982C31.993 24.6441 31.2262 25.4109 30.2803 25.4109Z" fill="#1C544B"/>
<path d="M25.7687 23.5637V24.0568C25.7687 24.3407 25.9988 24.5709 26.2828 24.5709C26.5667 24.5709 26.7969 24.3407 26.7969 24.0568V23.5777C27.1844 23.4955 27.4499 23.3194 27.62 23.1593C27.9555 22.8436 28.1559 22.367 28.1559 21.8844C28.1559 21.4893 28.0328 21.1315 27.7999 20.8499C27.4877 20.4724 26.9975 20.2443 26.3428 20.172C25.7325 20.1047 25.6414 19.7901 25.6414 19.6086C25.6414 19.5015 25.6724 18.9672 26.2828 18.9672C26.6759 18.9672 26.846 19.2016 26.888 19.2716C26.9651 19.459 27.1493 19.591 27.3644 19.591C27.7518 19.591 27.9752 19.188 27.827 18.8487C27.7046 18.5828 27.3676 18.1731 26.7969 18.0102V17.5073C26.7969 17.2233 26.5667 16.9932 26.2828 16.9932C25.9988 16.9932 25.7687 17.2233 25.7687 17.5073V18.0088C25.4186 18.1093 25.1267 18.3164 24.9218 18.6159C24.6354 19.0345 24.6132 19.4816 24.6132 19.6086C24.6132 20.2577 25.0367 21.0623 26.2301 21.194C27.1277 21.2931 27.1277 21.7227 27.1277 21.8844C27.1277 22.0422 27.0719 22.2632 26.9154 22.4105C26.7665 22.5506 26.5357 22.6123 26.2295 22.5935C25.5808 22.554 25.4337 22.1499 25.419 22.1039L25.4188 22.104C25.3631 21.8796 25.161 21.7131 24.9194 21.7131C24.5659 21.7131 24.3135 22.0763 24.4371 22.4079C24.4895 22.5726 24.7841 23.3401 25.7687 23.5637Z" fill="#F9EF63"/>
<path d="M31.993 14.7195H15.4249C16.1723 14.3194 16.747 13.8118 17.0015 13.2131C17.4108 12.2503 16.8526 11.4641 16.4835 11.0812C16.0028 10.5825 15.4185 10.3689 14.7952 10.463C13.5284 10.6544 12.306 12.1241 11.4915 13.3476V7.35547H10.4653V13.3476C9.65066 12.1241 8.42832 10.6543 7.16155 10.463C6.5376 10.3688 5.95389 10.5826 5.47331 11.0812C5.10416 11.4641 4.54608 12.2502 4.95527 13.2131C5.20974 13.8118 5.78442 14.3194 6.53182 14.7195H2.00684V15.7457H9.29193C8.10731 16.6816 6.52678 18.3005 5.86039 20.6333C5.78256 20.9058 5.94034 21.1898 6.21281 21.2676C6.25989 21.2811 6.30737 21.2874 6.35405 21.2874C6.57738 21.2874 6.78277 21.1405 6.84719 20.9151C7.53934 18.4921 9.41053 16.8959 10.4653 16.1593V26.6444H11.4915V16.1594C12.5462 16.896 14.4174 18.4922 15.1095 20.9152C15.1739 21.1406 15.3794 21.2876 15.6027 21.2876C15.6493 21.2876 15.6968 21.2811 15.7439 21.2677C16.0164 21.1899 16.1741 20.9059 16.0963 20.6334C15.4299 18.3007 13.8494 16.6817 12.6648 15.7458H31.9929V14.7195H31.993ZM5.89977 12.8117C5.81185 12.6049 5.74863 12.2743 6.21214 11.7935C6.46934 11.5266 6.6985 11.4671 6.87428 11.4671C6.92322 11.4671 6.96798 11.4717 7.00802 11.4778C7.62846 11.5713 8.44758 12.2884 9.31471 13.497C9.61593 13.9169 9.87823 14.3339 10.0806 14.6752C8.11402 14.4831 6.2749 13.6945 5.89977 12.8117ZM11.8759 14.6752C12.0763 14.3372 12.3359 13.9245 12.6347 13.5073C13.5044 12.2925 14.3261 11.5718 14.9485 11.4778C14.9887 11.4717 15.0336 11.4671 15.0825 11.4671C15.2583 11.4671 15.4875 11.5267 15.7447 11.7934C16.2082 12.2742 16.1449 12.6048 16.057 12.8116C15.6818 13.6945 13.8425 14.4831 11.8759 14.6752Z" fill="#F9EF63"/>
</svg>
