<svg width="16" height="16" viewBox="0 0 16 16" fill="none" xmlns="http://www.w3.org/2000/svg">
<path d="M13.563 9.44165C13.4471 9.44165 13.336 9.48768 13.2541 9.5696C13.1722 9.65153 13.1262 9.76264 13.1262 9.8785V11.3704C13.1262 11.722 12.9865 12.0592 12.7378 12.3079C12.4892 12.5565 12.1519 12.6962 11.8003 12.6962H4.19907C3.84743 12.6962 3.51019 12.5565 3.26155 12.3079C3.0129 12.0592 2.87322 11.722 2.87322 11.3704V9.8785C2.87322 9.76264 2.82719 9.65153 2.74527 9.5696C2.66334 9.48768 2.55223 9.44165 2.43636 9.44165C2.3205 9.44165 2.20939 9.48768 2.12746 9.5696C2.04554 9.65153 1.99951 9.76264 1.99951 9.8785V11.3704C2.00009 11.9535 2.23201 12.5127 2.64438 12.925C3.05676 13.3374 3.61589 13.5693 4.19907 13.5699H11.8003C12.3835 13.5693 12.9426 13.3374 13.355 12.925C13.7674 12.5127 13.9993 11.9535 13.9999 11.3704V9.8785C13.9999 9.76264 13.9538 9.65153 13.8719 9.5696C13.79 9.48768 13.6789 9.44165 13.563 9.44165Z" fill="#1C1C1C"/>
<path d="M7.6896 10.7173C7.73022 10.7582 7.77853 10.7907 7.83177 10.8129C7.885 10.8351 7.9421 10.8465 7.99977 10.8465C8.05744 10.8465 8.11454 10.8351 8.16777 10.8129C8.22101 10.7907 8.26932 10.7582 8.30994 10.7173L10.7956 8.23158C10.865 8.14813 10.9008 8.04185 10.8961 7.93344C10.8914 7.82503 10.8465 7.72225 10.7702 7.64512C10.6939 7.56798 10.5916 7.52201 10.4832 7.51615C10.3749 7.5103 10.2682 7.54497 10.184 7.61344L8.43662 9.36085V2.86703C8.43662 2.75117 8.3906 2.64005 8.30867 2.55813C8.22675 2.4762 8.11563 2.43018 7.99977 2.43018C7.88391 2.43018 7.77279 2.4762 7.69087 2.55813C7.60894 2.64005 7.56292 2.75117 7.56292 2.86703V9.35429L5.81551 7.60688C5.73353 7.52491 5.62236 7.47886 5.50643 7.47886C5.39051 7.47886 5.27933 7.52491 5.19736 7.60688C5.11539 7.68885 5.06934 7.80003 5.06934 7.91596C5.06934 8.03188 5.11539 8.14306 5.19736 8.22503L7.6896 10.7173Z" fill="#1C1C1C"/>
</svg>
