<svg width="58" height="57" viewBox="0 0 58 57" fill="none" xmlns="http://www.w3.org/2000/svg">
<path fill-rule="evenodd" clip-rule="evenodd" d="M29.0114 0.0791016C44.7143 0.0791016 57.4491 12.8138 57.4491 28.5168C57.4491 44.2197 44.7143 56.9544 29.0114 56.9544C13.3085 56.9544 0.57373 44.2197 0.57373 28.5168C0.57373 12.8138 13.3085 0.0791016 29.0114 0.0791016ZM23.106 37.7535L16.1437 30.7855C14.9576 29.5987 14.9574 27.6633 16.1437 26.4767C17.3303 25.2904 19.2743 25.2978 20.4523 26.4767L25.3607 31.3889L37.5709 19.1786C38.7576 17.992 40.6932 17.992 41.8795 19.1786C43.0661 20.365 43.0644 22.3023 41.8795 23.4872L27.5115 37.8553C26.3266 39.0402 24.3892 39.0419 23.2029 37.8553C23.1695 37.8219 23.1374 37.7881 23.106 37.7535Z" fill="#00BA00"/>
</svg>
