<svg width="20" height="20" viewBox="0 0 20 20" fill="none" xmlns="http://www.w3.org/2000/svg">
<path d="M10 1C9.30794 1 8.62263 1.13632 7.98323 1.40117C7.34383 1.66603 6.76286 2.05423 6.27349 2.54361C5.78412 3.033 5.39593 3.61398 5.1311 4.25339C4.86626 4.8928 4.72996 5.57811 4.72998 6.27019C4.72998 9.99619 10 17.1097 10 17.1097C10 17.1097 15.2701 10.3855 15.2701 6.27019C15.2701 5.57811 15.1338 4.8928 14.8689 4.25339C14.6041 3.61398 14.2159 3.033 13.7266 2.54361C13.2372 2.05423 12.6562 1.66603 12.0168 1.40117C11.3774 1.13632 10.6921 1 10 1ZM10 9.18819C9.42296 9.18822 8.85885 9.01713 8.37902 8.69656C7.8992 8.37599 7.5252 7.92034 7.30434 7.38722C7.08347 6.8541 7.02565 6.26746 7.13819 5.70148C7.25073 5.1355 7.52857 4.6156 7.93658 4.20752C8.3446 3.79945 8.86445 3.52153 9.43042 3.4089C9.99638 3.29627 10.583 3.354 11.1162 3.57479C11.6493 3.79557 12.105 4.16949 12.4257 4.64927C12.7463 5.12905 12.9175 5.69313 12.9176 6.27019C12.9176 7.04397 12.6102 7.78606 12.063 8.33321C11.5159 8.88036 10.7738 9.18774 10 9.18774V9.18819Z" fill="#DC4A4E"/>
<path d="M9.99997 18.8027C7.53225 18.8027 3.86108 18.353 3.86108 17.114C3.86108 16.2561 5.54515 15.8326 6.95787 15.6281C7.02602 15.62 7.09463 15.6389 7.14906 15.6807C7.2035 15.7225 7.23945 15.7839 7.24925 15.8518C7.25905 15.9197 7.24193 15.9888 7.20152 16.0442C7.16112 16.0997 7.10065 16.1372 7.03299 16.1487C5.10509 16.4275 4.38678 16.8888 4.38678 17.114C4.38678 17.5087 6.36787 18.2769 9.99982 18.2769C13.6318 18.2769 15.6129 17.5087 15.6129 17.114C15.6129 16.9037 14.8804 16.3798 12.6167 16.102C12.5488 16.092 12.4874 16.0558 12.4458 16.0012C12.4041 15.9466 12.3855 15.8779 12.3938 15.8097C12.4022 15.7415 12.4369 15.6793 12.4905 15.6364C12.5441 15.5934 12.6124 15.5731 12.6807 15.5799C13.9728 15.7385 16.1387 16.1485 16.1387 17.114C16.1389 18.353 12.4677 18.8027 9.99997 18.8027Z" fill="#DC4A4E"/>
</svg>
