<svg width="40" height="40" viewBox="0 0 40 40" fill="none" xmlns="http://www.w3.org/2000/svg">
<path d="M18.3335 24.9997H21.6668V28.333H18.3335V24.9997ZM18.3335 11.6663H21.6668V21.6663H18.3335V11.6663ZM20.0002 3.33301C10.7835 3.33301 3.3335 10.833 3.3335 19.9997C3.3335 24.4199 5.08944 28.6592 8.21505 31.7848C9.76269 33.3324 11.6 34.5601 13.6221 35.3977C15.6442 36.2352 17.8115 36.6663 20.0002 36.6663C24.4204 36.6663 28.6597 34.9104 31.7853 31.7848C34.9109 28.6592 36.6668 24.4199 36.6668 19.9997C36.6668 17.811 36.2357 15.6437 35.3982 13.6216C34.5606 11.5995 33.3329 9.7622 31.7853 8.21456C30.2376 6.66692 28.4003 5.43926 26.3782 4.60168C24.3561 3.7641 22.1889 3.33301 20.0002 3.33301ZM20.0002 33.333C16.4639 33.333 13.0726 31.9282 10.5721 29.4278C8.07159 26.9273 6.66683 23.5359 6.66683 19.9997C6.66683 16.4635 8.07159 13.0721 10.5721 10.5716C13.0726 8.0711 16.4639 6.66634 20.0002 6.66634C23.5364 6.66634 26.9278 8.0711 29.4283 10.5716C31.9287 13.0721 33.3335 16.4635 33.3335 19.9997C33.3335 23.5359 31.9287 26.9273 29.4283 29.4278C26.9278 31.9282 23.5364 33.333 20.0002 33.333Z" fill="#F1DCB1"/>
</svg>
