<svg width="20" height="20" viewBox="0 0 20 20" fill="none" xmlns="http://www.w3.org/2000/svg">
<path d="M10.0819 10.1635H10.1612C10.289 10.1635 10.3925 10.0599 10.3925 9.93225V8.84205C10.3925 8.71441 10.289 8.61085 10.1612 8.61085H4.52417C4.39643 8.61085 4.29297 8.71441 4.29297 8.84205V9.93225C4.29297 10.0599 4.39643 10.1635 4.52417 10.1635H10.0819Z" fill="#555555"/>
<path d="M10.1404 8.2594V3.83114C10.1404 3.63709 9.98312 3.4798 9.78897 3.4798H4.89644C4.70239 3.4798 4.5451 3.63709 4.5451 3.83114V8.2594C4.5451 8.45345 4.70239 8.61084 4.89644 8.61084H9.78897C9.98312 8.61084 10.1404 8.45345 10.1404 8.2594Z" fill="#393939"/>
<path d="M18.7474 12.8153C18.6402 12.0917 18.1493 10.1893 15.9447 10.1001C15.8461 10.0961 15.7593 10.0342 15.7254 9.94166L14.1487 5.6309C14.133 5.5878 14.1306 5.54411 14.1384 5.50325L14.3758 5.30598C14.5137 5.30598 14.6236 5.19092 14.6174 5.05323L14.57 4.00652C14.5642 3.87732 14.4578 3.77561 14.3285 3.77561H13.2616C13.1745 3.77561 13.094 3.82242 13.0511 3.89828L12.4856 4.89731C12.4657 4.93261 12.4549 4.97239 12.4543 5.01296L12.2918 12.3871C12.2897 12.5192 12.1822 12.6254 12.0499 12.6254H10.3238C10.1902 12.6254 10.0819 12.5171 10.0819 12.3836V10.1391C10.0819 10.0055 9.97371 9.89729 9.84012 9.89729H5.82024C5.80678 9.89729 5.79352 9.89827 5.78026 9.90061C5.54515 9.94098 3.41098 10.3916 3.29942 13.4387C3.29435 13.5758 3.40396 13.6901 3.54126 13.6901H3.79791C3.79411 13.628 3.79157 13.5657 3.79157 13.5027C3.79157 11.8399 5.13959 10.492 6.80229 10.492C8.46518 10.492 9.8131 11.8399 9.8131 13.5027C9.8131 13.5657 9.81057 13.628 9.80667 13.6901H12.309C12.3052 13.628 12.3025 13.5657 12.3025 13.5027C12.3025 11.8399 13.6505 10.492 15.3133 10.492C16.8369 10.492 18.0953 11.6239 18.2955 13.0925C18.2999 13.0922 18.3041 13.0912 18.3085 13.0912H18.508C18.6551 13.0912 18.7689 12.9608 18.7474 12.8153Z" fill="#555555"/>
<path d="M6.80234 10.492C5.13955 10.492 3.79163 11.8399 3.79163 13.5027C3.79163 13.5657 3.79416 13.628 3.79796 13.6901H9.80672C9.81052 13.628 9.81306 13.5657 9.81306 13.5027C9.81306 11.8399 8.46514 10.492 6.80234 10.492Z" fill="#555555"/>
<mask id="mask0_163_877" style="mask-type:luminance" maskUnits="userSpaceOnUse" x="3" y="10" width="7" height="4">
<path d="M3.79156 10.492H9.8131V13.6901H3.79156V10.492Z" fill="white"/>
</mask>
<g mask="url(#mask0_163_877)">
<g opacity="0.240005">
<path d="M6.80265 10.4921C5.13985 10.4921 3.79193 11.8401 3.79193 13.5029C3.79193 13.5659 3.79447 13.6282 3.79827 13.6902H9.80703C9.81083 13.6282 9.81337 13.5659 9.81337 13.5029C9.81337 11.8401 8.46544 10.4921 6.80265 10.4921Z" fill="#393939"/>
</g>
</g>
<path d="M15.3134 10.492C13.6506 10.492 12.3026 11.8399 12.3026 13.5027C12.3026 13.5657 12.3051 13.628 12.3089 13.6901H17.8249C17.9585 13.6901 18.0667 13.5818 18.0667 13.4482V13.333C18.0667 13.204 18.1682 13.0994 18.2955 13.0925C18.0953 11.6239 16.8369 10.492 15.3134 10.492Z" fill="#555555"/>
<mask id="mask1_163_877" style="mask-type:luminance" maskUnits="userSpaceOnUse" x="12" y="10" width="7" height="4">
<path d="M12.3026 10.492H18.2956V13.6901H12.3026V10.492Z" fill="white"/>
</mask>
<g mask="url(#mask1_163_877)">
<g opacity="0.240005">
<path d="M15.3132 10.4921C13.6505 10.4921 12.3024 11.8401 12.3024 13.5029C12.3024 13.5659 12.305 13.6282 12.3088 13.6902H17.8248C17.9584 13.6902 18.0666 13.5819 18.0666 13.4484V13.3331C18.0666 13.2041 18.168 13.0995 18.2954 13.0926C18.0952 11.624 16.8368 10.4921 15.3132 10.4921Z" fill="#393939"/>
</g>
</g>
<path d="M6.94598 10.7625C6.92492 10.758 6.90307 10.7554 6.88065 10.7554H6.75846H4.74111C4.57114 10.7554 4.43316 10.8933 4.43316 11.0634C4.43316 11.2102 4.53623 11.3329 4.67383 11.3637H4.96978C4.99016 11.3637 5.00995 11.3658 5.02916 11.3695C5.03189 11.37 5.03443 11.3706 5.03716 11.3712C5.17475 11.402 5.27772 11.5246 5.27772 11.6716C5.27772 11.8039 5.19406 11.9164 5.07685 11.96C5.0434 11.9724 5.00752 11.9794 4.96978 11.9794H4.47422H3.14297C3.02576 12.023 2.94199 12.1355 2.94199 12.2679C2.94199 12.3985 3.02361 12.5099 3.13848 12.5546H4.02712C4.06651 12.5546 4.10396 12.5623 4.13858 12.5758H4.17466C4.173 12.5805 4.17144 12.5852 4.16988 12.5898C4.26798 12.6413 4.33507 12.744 4.33507 12.8626C4.33507 13.0298 4.20147 13.1657 4.03531 13.17C4.03521 13.1706 4.03511 13.1712 4.03502 13.1718C4.03024 13.1715 4.02546 13.171 4.02059 13.171H2.11099C1.94092 13.171 1.80304 13.3088 1.80304 13.4789C1.80304 13.6489 1.94092 13.7868 2.11099 13.7868H3.41386H4.02059C4.0238 13.7868 4.02683 13.7864 4.03004 13.7863C4.03004 13.7865 4.03004 13.7866 4.03004 13.7868H4.34491C4.51498 13.7868 4.65276 13.9247 4.65276 14.0948C4.65276 14.2647 4.51498 14.4026 4.34491 14.4026H4.16803H4.01785C3.84779 14.4026 3.70991 14.5405 3.70991 14.7105C3.70991 14.8805 3.84779 15.0185 4.01785 15.0185H4.47431C4.47431 15.0185 4.47451 15.0188 4.4747 15.019H5.40186C5.57192 15.019 5.70981 15.1568 5.70981 15.3269C5.70981 15.4932 5.57797 15.6282 5.41317 15.6342H5.03667H4.7572C4.7534 15.6342 4.74969 15.6347 4.74589 15.6348C4.58109 15.6407 4.44925 15.7759 4.44925 15.9422C4.44925 16.1121 4.58714 16.25 4.7572 16.25H6.6669C6.69088 16.25 6.71419 16.247 6.73672 16.2417C6.74393 16.2418 6.75105 16.2423 6.75846 16.2423C8.27362 16.2423 9.5018 15.0141 9.5018 13.499C9.5018 12.0468 8.37357 10.8591 6.94598 10.7625Z" fill="#393939"/>
<path d="M3.50149 14.69C3.50149 14.52 3.36361 14.3821 3.19364 14.3821H1.77395C1.60389 14.3821 1.466 14.52 1.466 14.69C1.466 14.86 1.60389 14.9979 1.77395 14.9979H3.19364C3.36361 14.9979 3.50149 14.86 3.50149 14.69Z" fill="#393939"/>
<path d="M3.89693 15.6342H3.38021C3.21015 15.6342 3.07227 15.7721 3.07227 15.9422C3.07227 16.1121 3.21015 16.25 3.38021 16.25H3.89693C4.067 16.25 4.20488 16.1121 4.20488 15.9422C4.20488 15.7721 4.067 15.6342 3.89693 15.6342Z" fill="#393939"/>
<path d="M2.68924 11.3636H3.9691C4.10425 11.3311 4.20479 11.2097 4.20479 11.0646C4.20479 10.8945 4.067 10.7566 3.89694 10.7566H2.7614C2.59144 10.7566 2.45355 10.8945 2.45355 11.0646C2.45355 11.2097 2.55409 11.3311 2.68924 11.3636Z" fill="#393939"/>
<path d="M2.00592 12.5758H2.35882C2.39822 12.5758 2.43566 12.5681 2.47028 12.5546C2.58515 12.51 2.66667 12.3986 2.66667 12.2679C2.66667 12.0979 2.52888 11.96 2.35882 11.96H1.55795C1.38788 11.96 1.25 12.0979 1.25 12.2679C1.25 12.4379 1.38788 12.5758 1.55795 12.5758H2.00592Z" fill="#393939"/>
<path d="M9.54962 13.5028C9.54962 15.0201 8.31959 16.25 6.80239 16.25C5.28508 16.25 4.05505 15.0201 4.05505 13.5028C4.05505 11.9855 5.28508 10.7554 6.80239 10.7554C8.31959 10.7554 9.54962 11.9855 9.54962 13.5028Z" fill="#393939"/>
<path d="M8.02662 13.5028C8.02662 14.1789 7.4785 14.7271 6.80234 14.7271C6.12619 14.7271 5.57806 14.1789 5.57806 13.5028C5.57806 12.8266 6.12619 12.2784 6.80234 12.2784C7.4785 12.2784 8.02662 12.8266 8.02662 13.5028Z" fill="#AAAAAA"/>
<path fill-rule="evenodd" clip-rule="evenodd" d="M5.50195 13.5028C5.50195 14.221 6.08417 14.8032 6.80239 14.8032C7.5206 14.8032 8.10282 14.221 8.10282 13.5028C8.10282 12.7846 7.52061 12.2023 6.80239 12.2023C6.08416 12.2023 5.50195 12.7846 5.50195 13.5028ZM6.80239 14.6509C6.16829 14.6509 5.65427 14.1369 5.65427 13.5028C5.65427 12.8687 6.1683 12.3546 6.80239 12.3546C7.43648 12.3546 7.95051 12.8687 7.95051 13.5028C7.95051 14.1369 7.43648 14.6509 6.80239 14.6509Z" fill="#555555"/>
<path d="M18.0606 13.5028C18.0606 15.0201 16.8307 16.25 15.3134 16.25C13.7962 16.25 12.566 15.0201 12.566 13.5028C12.566 11.9855 13.7962 10.7554 15.3134 10.7554C16.8307 10.7554 18.0606 11.9855 18.0606 13.5028Z" fill="#393939"/>
<path d="M16.5376 13.5028C16.5376 14.1789 15.9895 14.7271 15.3133 14.7271C14.6372 14.7271 14.0891 14.1789 14.0891 13.5028C14.0891 12.8266 14.6372 12.2784 15.3133 12.2784C15.9895 12.2784 16.5376 12.8266 16.5376 13.5028Z" fill="#AAAAAA"/>
<path fill-rule="evenodd" clip-rule="evenodd" d="M14.0129 13.5028C14.0129 14.221 14.5952 14.8032 15.3134 14.8032C16.0316 14.8032 16.6138 14.221 16.6138 13.5028C16.6138 12.7846 16.0316 12.2023 15.3134 12.2023C14.5951 12.2023 14.0129 12.7846 14.0129 13.5028ZM15.3134 14.6509C14.6793 14.6509 14.1653 14.1369 14.1653 13.5028C14.1653 12.8687 14.6793 12.3546 15.3134 12.3546C15.9475 12.3546 16.4615 12.8687 16.4615 13.5028C16.4615 14.1369 15.9475 14.6509 15.3134 14.6509Z" fill="#555555"/>
<path d="M15.0893 5.54468C14.5042 5.54468 14.03 5.07037 14.03 4.4853C14.03 3.90022 14.5042 3.42591 15.0893 3.42591" fill="#555555"/>
<path d="M14.7841 3.42591V5.54468C15.3692 5.54468 15.8435 5.07037 15.8435 4.4853C15.8435 3.90022 15.3692 3.42591 14.7841 3.42591ZM14.9665 3.62728C15.363 3.71143 15.6612 4.06414 15.6612 4.4853C15.6612 4.90636 15.363 5.25916 14.9665 5.34331V3.62728Z" fill="#393939"/>
<path d="M15.2056 5.68298H14.6289V3.33194H15.2056V5.68298Z" fill="#555555"/>
<path d="M13.298 4.75146H11.2714C11.1367 4.75146 11.0274 4.64225 11.0274 4.50749C11.0274 4.37272 11.1367 4.26351 11.2714 4.26351H13.298C13.4327 4.26351 13.542 4.37272 13.542 4.50749C13.542 4.64225 13.4327 4.75146 13.298 4.75146Z" fill="#555555"/>
<path d="M12.1003 4.86243H11.3158C11.1198 4.86243 10.9609 4.70358 10.9609 4.50758C10.9609 4.31158 11.1198 4.15273 11.3158 4.15273H12.1003C12.2964 4.15273 12.4553 4.31158 12.4553 4.50758C12.4553 4.70358 12.2964 4.86243 12.1003 4.86243Z" fill="#393939"/>
<path fill-rule="evenodd" clip-rule="evenodd" d="M6.27639 7.90874C6.30706 7.93031 6.34886 7.92635 6.37494 7.89941L8.73124 5.46411C8.7525 5.44214 8.75856 5.40958 8.74663 5.38143C8.7347 5.35328 8.70709 5.335 8.67651 5.335H7.65813L8.37846 4.7914C8.40459 4.77168 8.4152 4.73747 8.4048 4.70642C8.3944 4.67538 8.36532 4.65446 8.33258 4.65446H7.01284C6.986 4.65446 6.96114 4.66858 6.94741 4.69164L5.96623 6.33913C5.95036 6.36577 5.95223 6.39937 5.97096 6.42409C5.98969 6.44881 6.02153 6.4597 6.05147 6.45163L7.05429 6.18148L6.25187 7.81283C6.23532 7.84648 6.24572 7.88717 6.27639 7.90874ZM6.60241 7.44526L7.26519 6.09782C7.27838 6.07098 7.27466 6.03891 7.25566 6.01582C7.23666 5.99273 7.20591 5.98289 7.17704 5.99067L6.19319 6.25571L7.05612 4.80677H8.10524L7.38491 5.35037C7.35877 5.37009 7.34817 5.4043 7.35857 5.43535C7.36897 5.46639 7.39804 5.48731 7.43078 5.48731H8.49685L6.60241 7.44526Z" fill="#AAAAAA"/>
</svg>
