<svg width="138" height="219" viewBox="0 0 138 219" fill="none" xmlns="http://www.w3.org/2000/svg">
<path d="M68.8182 24.8824C54.686 24.8824 43.1887 36.4248 43.1887 50.6123C43.1887 64.8 54.686 76.3424 68.8182 76.3424C82.9501 76.3424 94.4473 64.8 94.4473 50.6123C94.4473 36.4248 82.9501 24.8824 68.8182 24.8824ZM68.8182 80.7702C52.2542 80.7702 38.7783 67.2413 38.7783 50.6123C38.7783 33.9832 52.2542 20.4547 68.8182 20.4547C85.3818 20.4547 98.8577 33.9832 98.8577 50.6123C98.8577 67.2413 85.3818 80.7702 68.8182 80.7702Z" fill="white"/>
<path d="M68.8182 64.8586C54.686 64.8586 43.1887 76.4011 43.1887 90.5885C43.1887 104.776 54.686 116.319 68.8182 116.319C82.9501 116.319 94.4473 104.776 94.4473 90.5885C94.4473 76.4011 82.9501 64.8586 68.8182 64.8586ZM68.8182 120.746C52.2542 120.746 38.7783 107.218 38.7783 90.5885C38.7783 73.9594 52.2542 60.4309 68.8182 60.4309C85.3818 60.4309 98.8577 73.9594 98.8577 90.5885C98.8577 107.218 85.3818 120.746 68.8182 120.746Z" fill="white"/>
<path d="M0.282715 197.516H3.66095V185.158L0.448832 186.104V182.767L7.28852 180.488V197.516H10.5006V200.629H0.282715V197.516Z" fill="white"/>
<path d="M27.4474 189.161V191.823C27.4474 192.713 27.5812 193.487 27.849 194.144C28.1166 194.802 28.472 195.354 28.9151 195.798C29.3582 196.243 29.8569 196.577 30.4105 196.799C30.9644 197.022 31.5363 197.133 32.1272 197.133C32.7179 197.133 33.2995 197.022 33.8723 196.799C34.4441 196.577 34.9519 196.243 35.3953 195.798C35.838 195.354 36.1935 194.802 36.461 194.144C36.7286 193.487 36.8627 192.713 36.8627 191.823V189.161C36.8627 188.29 36.7242 187.53 36.4472 186.881C36.1703 186.233 35.8104 185.691 35.3673 185.255C34.9242 184.82 34.4212 184.49 33.8581 184.268C33.2948 184.046 32.7179 183.935 32.1272 183.935C31.5363 183.935 30.9594 184.042 30.3967 184.255C29.8333 184.467 29.335 184.792 28.9013 185.227C28.4673 185.663 28.1166 186.21 27.849 186.867C27.5812 187.526 27.4474 188.29 27.4474 189.161ZM23.8198 191.851V189.189C23.8198 187.743 24.0594 186.474 24.5402 185.38C25.0197 184.287 25.6477 183.379 26.4231 182.656C27.1981 181.933 28.0845 181.391 29.0812 181.03C30.0783 180.668 31.1026 180.488 32.1552 180.488C33.1889 180.488 34.2045 180.668 35.2012 181.03C36.1979 181.391 37.0885 181.933 37.8735 182.656C38.6576 183.379 39.2897 184.287 39.7702 185.38C40.25 186.474 40.4899 187.743 40.4899 189.189V191.851C40.4899 193.296 40.25 194.566 39.7702 195.659C39.2897 196.753 38.6576 197.666 37.8735 198.398C37.0885 199.13 36.1979 199.677 35.2012 200.038C34.2045 200.399 33.1889 200.58 32.1552 200.58C31.1026 200.58 30.0783 200.399 29.0812 200.038C28.0845 199.677 27.1981 199.13 26.4231 198.398C25.6477 197.666 25.0197 196.753 24.5402 195.659C24.0594 194.566 23.8198 193.296 23.8198 191.851Z" fill="white"/>
<path d="M58.1847 189.161V191.823C58.1847 192.713 58.3185 193.487 58.5863 194.144C58.8539 194.802 59.2093 195.354 59.6524 195.798C60.0955 196.243 60.5942 196.577 61.1478 196.799C61.7017 197.022 62.2736 197.133 62.8645 197.133C63.4552 197.133 64.0368 197.022 64.6096 196.799C65.1814 196.577 65.6892 196.243 66.1326 195.798C66.5753 195.354 66.9308 194.802 67.1983 194.144C67.4659 193.487 67.6 192.713 67.6 191.823V189.161C67.6 188.29 67.4615 187.53 67.1845 186.881C66.9076 186.233 66.5477 185.691 66.1046 185.255C65.6615 184.82 65.1585 184.49 64.5954 184.268C64.0321 184.046 63.4552 183.935 62.8645 183.935C62.2736 183.935 61.6967 184.042 61.134 184.255C60.5709 184.467 60.0723 184.792 59.6386 185.227C59.2046 185.663 58.8539 186.21 58.5863 186.867C58.3185 187.526 58.1847 188.29 58.1847 189.161ZM54.5571 191.851V189.189C54.5571 187.743 54.7967 186.474 55.2775 185.38C55.757 184.287 56.385 183.379 57.1604 182.656C57.9354 181.933 58.8218 181.391 59.8185 181.03C60.8156 180.668 61.8399 180.488 62.8925 180.488C63.9263 180.488 64.9418 180.668 65.9385 181.03C66.9352 181.391 67.8258 181.933 68.6108 182.656C69.3949 183.379 70.027 184.287 70.5075 185.38C70.9873 186.474 71.2272 187.743 71.2272 189.189V191.851C71.2272 193.296 70.9873 194.566 70.5075 195.659C70.027 196.753 69.3949 197.666 68.6108 198.398C67.8258 199.13 66.9352 199.677 65.9385 200.038C64.9418 200.399 63.9263 200.58 62.8925 200.58C61.8399 200.58 60.8156 200.399 59.8185 200.038C58.8218 199.677 57.9354 199.13 57.1604 198.398C56.385 197.666 55.757 196.753 55.2775 195.659C54.7967 194.566 54.5571 193.296 54.5571 191.851Z" fill="white"/>
<path d="M88.922 189.161V191.823C88.922 192.713 89.0561 193.487 89.3236 194.144C89.5912 194.802 89.947 195.354 90.3897 195.798C90.8334 196.243 91.3318 196.577 91.8851 196.799C92.439 197.022 93.0115 197.133 93.6019 197.133C94.1925 197.133 94.7741 197.022 95.3472 196.799C95.9187 196.577 96.4271 196.243 96.8699 195.798C97.3126 195.354 97.6684 194.802 97.936 194.144C98.2035 193.487 98.3376 192.713 98.3376 191.823V189.161C98.3376 188.29 98.1988 187.53 97.9221 186.881C97.6449 186.233 97.285 185.691 96.8422 185.255C96.3988 184.82 95.8958 184.49 95.3327 184.268C94.7694 184.046 94.1925 183.935 93.6019 183.935C93.0115 183.935 92.4343 184.042 91.8713 184.255C91.3082 184.467 90.8096 184.792 90.3759 185.227C89.9426 185.663 89.5912 186.21 89.3236 186.867C89.0561 187.526 88.922 188.29 88.922 189.161ZM85.2944 191.851V189.189C85.2944 187.743 85.5347 186.474 86.0148 185.38C86.4946 184.287 87.1227 183.379 87.8977 182.656C88.6727 181.933 89.5591 181.391 90.5559 181.03C91.5529 180.668 92.5778 180.488 93.6301 180.488C94.6636 180.488 95.6794 180.668 96.6761 181.03C97.6731 181.391 98.5631 181.933 99.3481 182.656C100.132 183.379 100.765 184.287 101.245 185.38C101.725 186.474 101.965 187.743 101.965 189.189V191.851C101.965 193.296 101.725 194.566 101.245 195.659C100.765 196.753 100.132 197.666 99.3481 198.398C98.5631 199.13 97.6731 199.677 96.6761 200.038C95.6794 200.399 94.6636 200.58 93.6301 200.58C92.5778 200.58 91.5529 200.399 90.5559 200.038C89.5591 199.677 88.6727 199.13 87.8977 198.398C87.1227 197.666 86.4946 196.753 86.0148 195.659C85.5347 194.566 85.2944 193.296 85.2944 191.851Z" fill="white"/>
<path d="M133.699 185.825L127.385 194.277H126.666L120.49 185.797V200.629H116.834V180.488H121.044L127.108 188.856L133.173 180.488H137.354V200.629H133.699V185.825Z" fill="white"/>
<path d="M45.1223 147.437C44.3831 147.437 43.6612 147.064 43.2442 146.386C40.3228 141.638 38.7788 136.164 38.7788 130.558C38.7788 113.929 52.2544 100.4 68.8187 100.4C85.3823 100.4 98.8579 113.929 98.8579 130.558C98.8579 135.933 97.4313 141.211 94.7323 145.821C94.1149 146.875 92.7643 147.227 91.7136 146.608C90.6635 145.988 90.3128 144.631 90.9301 143.577C93.2313 139.647 94.4475 135.145 94.4475 130.558C94.4475 116.37 82.9502 104.828 68.8187 104.828C54.6865 104.828 43.1892 116.37 43.1892 130.558C43.1892 135.342 44.5056 140.011 46.9967 144.059C47.6367 145.1 47.3151 146.464 46.2792 147.106C45.9181 147.33 45.518 147.437 45.1223 147.437Z" fill="white"/>
<path d="M54.1652 154.597L59.1654 160.526H78.4842L54.1652 131.69L29.8462 160.526H49.1651L54.1652 154.597Z" fill="white"/>
<path d="M83.3937 154.597L88.3939 160.526H107.713L83.3937 131.69L59.0747 160.526H78.3936L83.3937 154.597Z" fill="white"/>
<path d="M67.56 0.421429L64.2628 5.7051L59.5239 13.1921L64.2075 13.1489L66.6133 9.3441V35.1153V38.1852V40.3989H71.0237V38.1852V35.1153V5.7051V2.63578V0.421429H67.56Z" fill="white"/>
<path d="M3.1447 210.459H0.282715V209.197H7.40062V210.459H4.55089V217.942H3.1447V210.459Z" fill="white"/>
<path d="M19.4088 217.943H12.9751V209.197H19.3714V210.559H14.3687V212.92H19.1723V214.22H14.3687V216.568H19.4088V217.943Z" fill="white"/>
<path d="M29.151 210.672L27.3093 214.832H30.9928L29.151 210.672ZM31.5031 216.106H26.7865L25.9653 217.943H24.4844L28.3917 209.197H29.9103L33.8177 217.943H32.3368L31.5031 216.106Z" fill="white"/>
<path d="M47.2062 215.382C47.2062 216.356 48.0899 216.806 49.2097 216.806C49.9068 216.806 51.1761 216.481 51.1761 215.456V214.032H49.1601C47.8286 214.032 47.2062 214.757 47.2062 215.382ZM52.4827 215.456C52.4827 216.081 52.7066 216.618 53.3412 216.618V217.968C52.6818 217.993 51.9972 217.768 51.7482 216.831C51.2131 217.655 50.2799 218.08 49.1475 218.08C47.3431 218.08 45.8374 217.168 45.8374 215.369C45.8374 214.544 46.4598 213.745 47.281 213.47C46.5094 213.158 46.0616 212.396 46.0616 211.634C46.0739 209.897 47.6044 209.085 49.2722 209.085C50.7528 209.085 52.3458 209.61 52.358 211.484H51.0514C51.0514 210.534 50.1929 210.272 49.2348 210.272C47.8657 210.272 47.4053 210.996 47.4179 211.634C47.4179 212.633 48.5377 212.92 49.2348 212.92H53.2169V214.032H52.4827V215.456Z" fill="white"/>
<path d="M73.9844 216.818C73.0885 217.705 71.9313 218.117 70.7116 218.117C67.5507 218.117 66.132 215.931 66.1197 213.633C66.1071 211.333 67.6006 209.047 70.7116 209.047C71.8814 209.047 73.0137 209.485 73.8974 210.372L72.9641 211.271C72.3417 210.659 71.5206 210.372 70.7116 210.372C68.4965 210.372 67.4888 212.008 67.5011 213.62C67.5136 215.219 68.4592 216.806 70.7116 216.806C71.5206 216.806 72.4165 216.468 73.0263 215.856L73.9844 216.818Z" fill="white"/>
<path d="M83.3666 216.843C85.5318 216.843 86.4403 215.306 86.4403 213.632C86.4403 212.021 85.5196 210.347 83.3914 210.309C81.3754 210.309 80.293 211.721 80.293 213.632C80.3178 215.182 81.2137 216.843 83.3666 216.843ZM87.8216 213.608C87.8216 215.969 86.3907 218.13 83.3666 218.13C80.3426 218.13 78.9116 215.919 78.9116 213.62C78.9116 210.959 80.7656 209.035 83.3914 209.035C86.3655 209.047 87.8216 211.246 87.8216 213.608Z" fill="white"/>
<path d="M93.7441 217.943V209.21H99.9043V210.572H95.1381V213.233H99.6678V214.532H95.1381V217.943H93.7441Z" fill="white"/>
<path d="M105.802 217.943V209.21H111.962V210.572H107.196V213.233H111.725V214.532H107.196V217.943H105.802Z" fill="white"/>
<path d="M124.293 217.943H117.859V209.197H124.255V210.559H119.253V212.92H124.056V214.22H119.253V216.568H124.293V217.943Z" fill="white"/>
<path d="M136.786 217.943H130.352V209.197H136.748V210.559H131.746V212.92H136.549V214.22H131.746V216.568H136.786V217.943Z" fill="white"/>
</svg>
