<svg width="512" height="512" viewBox="0 0 512 512" fill="none" xmlns="http://www.w3.org/2000/svg">
<g clip-path="url(#clip0_1933_824)">
<path d="M517.59 0.660156H-4.08008V512.26H517.59V0.660156Z" fill="#2E395C"/>
<path d="M256.59 221.81C227.43 221.81 203.7 198.09 203.7 168.92C203.7 139.75 227.42 116.03 256.59 116.03C285.76 116.03 309.48 139.75 309.48 168.92C309.48 198.09 285.76 221.81 256.59 221.81ZM256.59 123.8C231.71 123.8 211.47 144.04 211.47 168.92C211.47 193.8 231.71 214.04 256.59 214.04C281.47 214.04 301.71 193.8 301.71 168.92C301.71 144.04 281.47 123.8 256.59 123.8Z" fill="white"/>
<path d="M256.59 291.921C227.43 291.921 203.7 268.201 203.7 239.031C203.7 209.861 227.42 186.141 256.59 186.141C285.76 186.141 309.48 209.861 309.48 239.031C309.48 268.201 285.76 291.921 256.59 291.921ZM256.59 193.911C231.71 193.911 211.47 214.151 211.47 239.031C211.47 263.911 231.71 284.151 256.59 284.151C281.47 284.151 301.71 263.911 301.71 239.031C301.71 214.151 281.47 193.911 256.59 193.911Z" fill="white"/>
<path d="M135.93 426.549H141.88V404.879L136.22 406.539V400.689L148.26 396.689V426.549H153.92V432.009H135.93V426.549Z" fill="white"/>
<path d="M177.37 416.61V411.94C177.37 409.4 177.79 407.18 178.64 405.26C179.48 403.34 180.59 401.75 181.96 400.48C183.32 399.21 184.88 398.26 186.64 397.63C188.39 397 190.2 396.68 192.05 396.68C193.9 396.68 195.66 397 197.41 397.63C199.16 398.26 200.73 399.21 202.11 400.48C203.49 401.75 204.6 403.34 205.45 405.26C206.29 407.18 206.72 409.4 206.72 411.94V416.61C206.72 419.15 206.3 421.37 205.45 423.29C204.6 425.21 203.49 426.81 202.11 428.09C200.73 429.37 199.16 430.33 197.41 430.97C195.66 431.6 193.87 431.92 192.05 431.92C190.23 431.92 188.39 431.6 186.64 430.97C184.89 430.34 183.32 429.38 181.96 428.09C180.59 426.81 179.49 425.21 178.64 423.29C177.79 421.37 177.37 419.15 177.37 416.61ZM183.76 411.89V416.56C183.76 418.12 184 419.48 184.47 420.63C184.94 421.78 185.57 422.75 186.35 423.53C187.13 424.31 188.01 424.9 188.98 425.29C189.96 425.68 190.96 425.87 192 425.87C193.04 425.87 194.06 425.67 195.07 425.29C196.08 424.9 196.97 424.31 197.75 423.53C198.53 422.75 199.16 421.78 199.63 420.63C200.1 419.48 200.34 418.12 200.34 416.56V411.89C200.34 410.36 200.1 409.03 199.61 407.89C199.12 406.75 198.49 405.8 197.71 405.04C196.93 404.28 196.04 403.7 195.05 403.31C194.06 402.92 193.04 402.73 192 402.73C190.96 402.73 189.94 402.92 188.95 403.29C187.96 403.66 187.08 404.23 186.32 405C185.56 405.76 184.94 406.72 184.47 407.88C184 409.03 183.76 410.37 183.76 411.9V411.89Z" fill="white"/>
<path d="M231.49 416.61V411.94C231.49 409.4 231.91 407.18 232.76 405.26C233.6 403.34 234.71 401.75 236.08 400.48C237.44 399.21 239 398.26 240.76 397.63C242.51 397 244.32 396.68 246.17 396.68C248.02 396.68 249.78 397 251.53 397.63C253.28 398.26 254.85 399.21 256.23 400.48C257.61 401.75 258.72 403.34 259.57 405.26C260.41 407.18 260.84 409.4 260.84 411.94V416.61C260.84 419.15 260.42 421.37 259.57 423.29C258.72 425.21 257.61 426.81 256.23 428.09C254.85 429.37 253.28 430.33 251.53 430.97C249.78 431.6 247.99 431.92 246.17 431.92C244.35 431.92 242.51 431.6 240.76 430.97C239.01 430.34 237.44 429.38 236.08 428.09C234.71 426.81 233.61 425.21 232.76 423.29C231.91 421.37 231.49 419.15 231.49 416.61ZM237.88 411.89V416.56C237.88 418.12 238.12 419.48 238.59 420.63C239.06 421.78 239.69 422.75 240.47 423.53C241.25 424.31 242.13 424.9 243.1 425.29C244.08 425.68 245.08 425.87 246.12 425.87C247.16 425.87 248.18 425.67 249.19 425.29C250.2 424.9 251.09 424.31 251.87 423.53C252.65 422.75 253.28 421.78 253.75 420.63C254.22 419.48 254.46 418.12 254.46 416.56V411.89C254.46 410.36 254.22 409.03 253.73 407.89C253.24 406.75 252.61 405.8 251.83 405.04C251.05 404.28 250.16 403.7 249.17 403.31C248.18 402.92 247.16 402.73 246.12 402.73C245.08 402.73 244.06 402.92 243.07 403.29C242.08 403.66 241.2 404.23 240.44 405C239.68 405.76 239.06 406.72 238.59 407.88C238.12 409.03 237.88 410.37 237.88 411.9V411.89Z" fill="white"/>
<path d="M285.6 416.61V411.94C285.6 409.4 286.02 407.18 286.87 405.26C287.72 403.34 288.82 401.75 290.19 400.48C291.55 399.21 293.11 398.26 294.87 397.63C296.62 397 298.43 396.68 300.28 396.68C302.13 396.68 303.89 397 305.64 397.63C307.39 398.26 308.96 399.21 310.34 400.48C311.72 401.75 312.83 403.34 313.68 405.26C314.53 407.18 314.95 409.4 314.95 411.94V416.61C314.95 419.15 314.53 421.37 313.68 423.29C312.83 425.21 311.72 426.81 310.34 428.09C308.96 429.37 307.39 430.33 305.64 430.97C303.89 431.6 302.1 431.92 300.28 431.92C298.46 431.92 296.62 431.6 294.87 430.97C293.12 430.34 291.55 429.38 290.19 428.09C288.83 426.81 287.72 425.21 286.87 423.29C286.02 421.37 285.6 419.15 285.6 416.61ZM291.99 411.89V416.56C291.99 418.12 292.23 419.48 292.7 420.63C293.17 421.78 293.8 422.75 294.58 423.53C295.36 424.31 296.24 424.9 297.21 425.29C298.19 425.68 299.19 425.87 300.23 425.87C301.27 425.87 302.29 425.67 303.3 425.29C304.31 424.9 305.2 424.31 305.98 423.53C306.76 422.75 307.39 421.78 307.86 420.63C308.33 419.48 308.57 418.12 308.57 416.56V411.89C308.57 410.36 308.33 409.03 307.84 407.89C307.35 406.75 306.72 405.8 305.94 405.04C305.16 404.28 304.27 403.7 303.28 403.31C302.29 402.92 301.27 402.73 300.23 402.73C299.19 402.73 298.17 402.92 297.18 403.29C296.19 403.66 295.31 404.23 294.55 405C293.79 405.76 293.17 406.72 292.7 407.88C292.23 409.03 291.99 410.37 291.99 411.9V411.89Z" fill="white"/>
<path d="M370.82 406.049L359.7 420.869H358.43L347.56 405.999V432.009H341.12V396.689H348.53L359.21 411.359L369.89 396.689H377.25V432.009H370.82V406.049Z" fill="white"/>
<path d="M214.88 338.72C213.58 338.72 212.31 338.07 211.57 336.88C206.43 328.55 203.71 318.95 203.71 309.12C203.71 279.96 227.43 256.23 256.6 256.23C285.77 256.23 309.49 279.95 309.49 309.12C309.49 318.55 306.98 327.8 302.23 335.89C301.14 337.74 298.77 338.36 296.92 337.27C295.07 336.18 294.45 333.8 295.54 331.96C299.59 325.07 301.73 317.17 301.73 309.13C301.73 284.25 281.49 264.01 256.61 264.01C231.73 264.01 211.49 284.25 211.49 309.13C211.49 317.52 213.81 325.71 218.19 332.81C219.32 334.63 218.75 337.03 216.93 338.15C216.29 338.54 215.59 338.73 214.89 338.73L214.88 338.72Z" fill="white"/>
<path d="M230.8 351.28L239.6 361.68H273.61L230.8 311.11L187.98 361.68H221.99L230.8 351.28Z" fill="white"/>
<path d="M282.26 351.28L291.06 361.68H325.07L282.26 311.11L239.44 361.68H273.45L282.26 351.28Z" fill="white"/>
<path d="M254.38 80.9102L248.57 90.1802L240.23 103.31L248.48 103.23L252.71 96.5602V141.75V147.13V151.02H260.48V147.13V141.75V90.1802V84.7902V80.9102H254.38Z" fill="white"/>
</g>
<defs>
<clipPath id="clip0_1933_824">
<rect width="512" height="512" fill="white"/>
</clipPath>
</defs>
</svg>
