<svg width="20" height="20" viewBox="0 0 20 20" fill="none" xmlns="http://www.w3.org/2000/svg">
<path d="M18.8 3.2002H1.2C0.538398 3.2002 0 3.73859 0 4.4002V15.6002C0 16.2618 0.538398 16.8002 1.2 16.8002H18.8C19.4616 16.8002 20 16.2618 20 15.6002V4.4002C20 3.73859 19.4616 3.2002 18.8 3.2002ZM19.2 15.6002C19.2 15.8202 19.02 16.0002 18.8 16.0002H1.2C0.979219 16.0002 0.8 15.8202 0.8 15.6002V4.4002C0.8 4.17938 0.979219 4.0002 1.2 4.0002H18.8C19.02 4.0002 19.2 4.17938 19.2 4.4002V15.6002Z" fill="black"/>
<path d="M19.5999 6.7998H0.399902V8.3998H19.5999V6.7998Z" fill="black"/>
<path d="M19.6 6.40039H0.4C0.179219 6.40039 0 6.57957 0 6.80039V8.40039C0 8.62121 0.179219 8.80039 0.4 8.80039H19.6C19.8208 8.80039 20 8.62121 20 8.40039V6.80039C20 6.57957 19.8208 6.40039 19.6 6.40039ZM19.2 8.00039H0.8V7.20039H19.2V8.00039Z" fill="black"/>
<path d="M10.8002 11.2002H3.6002C3.37941 11.2002 3.2002 11.3794 3.2002 11.6002C3.2002 11.821 3.37941 12.0002 3.6002 12.0002H10.8002C11.021 12.0002 11.2002 11.821 11.2002 11.6002C11.2002 11.3794 11.021 11.2002 10.8002 11.2002Z" fill="black"/>
<path d="M7.6002 12.7998H3.6002C3.37941 12.7998 3.2002 12.979 3.2002 13.1998C3.2002 13.4206 3.37941 13.5998 3.6002 13.5998H7.6002C7.82098 13.5998 8.0002 13.4206 8.0002 13.1998C8.0002 12.979 7.82098 12.7998 7.6002 12.7998Z" fill="black"/>
</svg>
