<svg width="115" height="115" viewBox="0 0 115 115" fill="none" xmlns="http://www.w3.org/2000/svg">
<path d="M82.84 74.1009C82.0527 75.9672 80.9065 77.6513 79.7052 79.2714C77.5602 82.1121 75.4249 84.9675 73.1884 87.7354C70.3444 91.2315 67.408 94.6467 64.3704 97.9735C63.9411 98.4449 63.5085 98.9131 63.0735 99.3813C63.0444 99.4137 63.0144 99.4453 62.9844 99.4777C62.0545 103.236 60.5754 106.723 58.1566 109.526C54.3089 113.491 48.4592 114.992 43.0889 114.05C31.7843 112.26 28.0826 99.6235 25.4333 90.0902C22.8856 80.3511 22.0324 70.1487 23.4482 60.161C24.162 55.8564 24.8523 51.1283 27.5824 47.5916C28.0162 47.0279 29.2875 45.8533 29.6365 47.0424C29.7589 47.0927 29.8606 47.1866 29.9126 47.3146C30.6368 49.1356 31.2686 50.9897 31.9589 52.8229C34.2995 58.5004 36.1504 64.3626 38.4806 70.0434C42.646 79.7185 45.1273 79.5063 54.6111 76.9587C57.1951 76.5091 62.8013 74.2807 64.5607 76.9271C64.82 77.4504 64.8929 78.0158 64.9018 78.5917C65.0346 78.4403 65.1691 78.288 65.3035 78.1373C65.4048 78.0223 65.5077 77.9064 65.6105 77.7922C69.8154 73.0835 74.7453 68.2873 79.0774 67.7583C83.3771 67.2269 84.4228 70.6671 82.84 74.1009Z" fill="#F6BA9E"/>
<path d="M74.9144 53.9571C78.0541 53.0815 80.5417 55.6493 79.6053 58.7663C78.9167 61.2864 76.9168 63.1227 75.2983 65.0741C73.5681 67.1875 71.6702 69.168 70.0144 71.3421C70.4154 72.0841 69.3267 72.6666 69.0132 71.8589C68.3271 69.5171 67.428 67.2425 66.7322 64.9032C66.4438 63.8444 66.0169 62.7663 66.1327 61.6517C66.3847 60.2511 68.4081 58.8587 69.3632 57.7708C71.0011 56.2487 72.7159 54.5946 74.9144 53.9571Z" fill="#F6BA9E"/>
<path d="M73.8896 75.1823L44.9394 86.1964C43.3428 86.8039 41.556 86.002 40.9485 84.4054L18.8094 26.2164C18.202 24.6198 19.0039 22.8337 20.6005 22.2262L49.5507 11.2113C51.1478 10.6038 52.9339 11.4057 53.5415 13.0023L75.6806 71.1913C76.2881 72.7878 75.4862 74.5748 73.8896 75.1823Z" fill="#092241"/>
<path d="M72.4331 70.348L42.8133 81.6172L22.0566 27.062L51.6768 15.792L72.4331 70.348Z" fill="#FFF5DA"/>
<path d="M42.1314 17.024C42.029 16.755 41.728 16.6197 41.4592 16.7226L29.1255 21.4152C28.8565 21.5172 28.7214 21.8186 28.8237 22.0875C28.903 22.2949 29.1008 22.4229 29.3108 22.4229C29.3724 22.4229 29.4351 22.4123 29.496 22.3888L41.8298 17.6963C42.0987 17.5942 42.2337 17.2929 42.1314 17.024Z" fill="#FFFFEB"/>
<path d="M52.771 80.0752L65.1054 75.3827L52.771 80.0752Z" fill="black"/>
<path d="M52.771 80.0752L65.1054 75.3827" stroke="black" stroke-width="10.6667" stroke-miterlimit="10" stroke-linecap="round"/>
<path d="M65.2705 77.4737C65.1223 80.2716 64.7537 83.0419 64.3852 85.8074C64.1705 87.1318 64.164 88.8029 63.0583 89.5351C59.5436 91.5343 54.8648 91.7352 51.0147 91.7198C48.0309 91.9361 47.0435 90.67 47.4395 87.067C46.8429 86.5275 47.8002 84.3849 47.868 83.553C48.6677 79.8131 49.5535 76.0594 50.5251 72.3964C51.3233 69.6326 52.0969 66.2563 53.2488 63.2454C53.44 62.7464 53.6408 62.258 53.8547 61.7841C54.6518 60.0109 55.6165 58.4403 56.8478 57.303C59.5695 55.3848 62.9417 57.759 64.3965 60.7173C64.552 61.0454 64.6897 61.3823 64.8112 61.7315C65.0259 62.343 65.1928 62.9838 65.3191 63.6464C66.1478 67.976 65.3005 73.2534 65.2705 77.4737Z" fill="#F6BA9E"/>
<path d="M64.8115 61.7321C64.6341 62.4498 64.357 63.1432 63.8945 63.728C62.2177 66.1273 58.7548 67.1131 56.3037 65.2881C55.2887 64.3687 54.3758 63.1205 53.8549 61.7847C53.6411 62.2586 53.4402 62.747 53.249 63.246C53.7488 64.1719 54.3887 65.0281 55.0935 65.7822C56.4114 67.0945 58.4081 67.6016 60.2226 67.3343C62.3862 67.0046 64.2809 65.5538 65.3194 63.647C65.193 62.9844 65.0261 62.3436 64.8115 61.7321Z" fill="black"/>
<path d="M66.4108 78.7316C66.2965 79.8924 66.1507 81.169 66.0454 82.2795C65.7733 85.5245 65.3885 88.6513 65.0029 91.8671C64.7607 93.923 64.5469 95.9497 64.3711 97.974C63.9418 98.4454 63.5092 98.9136 63.0742 99.3818C63.1317 98.605 63.1982 97.8371 63.2743 97.0854C63.6469 92.9072 64.2642 88.6375 64.6659 84.4909C64.8377 82.5153 65.0588 80.4116 65.2613 78.4748C65.2621 78.363 65.271 78.2447 65.3042 78.1378C65.3391 78.0228 65.4006 77.9199 65.5068 77.8462C65.5424 77.8251 65.5772 77.8065 65.6113 77.7927C66.2131 77.5238 66.5728 78.1678 66.4108 78.7316Z" fill="black"/>
<path d="M109.669 7.69992C110.939 10.0994 111.145 12.8944 111.045 15.5636C110.883 20.5195 109.437 24.3719 105.157 27.1774C102.133 29.2047 98.4516 29.9134 94.8872 30.302C92.093 30.6082 89.2841 30.8077 86.4726 30.7843C82.1448 30.6794 77.6999 30.1754 73.7112 28.4014C72.0977 29.0095 70.4807 29.6054 68.8672 30.1623C68.7735 30.197 68.6798 30.2326 68.5862 30.2673C67.8384 30.5857 66.3429 31.3282 65.3435 31.5442C65.3175 31.5546 65.2915 31.5651 65.2663 31.5755C65.1726 31.6128 65.0668 31.6579 64.9644 31.6258C64.941 31.6206 64.9211 31.6128 64.9011 31.6041C64.7241 31.6084 64.5801 31.5798 64.483 31.5087C63.9937 31.081 64.516 30.4261 64.6825 29.9567C64.9193 29.4267 65.1379 28.8889 65.3479 28.3476C65.3184 28.273 65.3158 28.1888 65.3461 28.109C65.55 27.5625 65.7252 27.003 65.89 26.4895C66.1902 25.5439 66.4721 24.6478 66.7506 23.7066C67.0169 22.8304 67.2867 21.956 67.5539 21.0807C66.8061 17.6273 67.2138 13.748 68.7093 10.5669C70.2014 7.27225 72.7787 4.66722 76.0404 3.11791C80.1704 1.15568 84.7811 0.465166 89.3049 0.132055C93.6597 -0.10043 98.7622 -0.259174 102.723 1.77506C103.124 1.97978 103.512 2.20533 103.888 2.45169C104.475 2.73102 105.052 3.05285 105.585 3.40244C107.25 4.49026 108.752 5.91552 109.669 7.69992Z" fill="#D4E5F5"/>
<path d="M75.4856 20.7485C75.2167 19.8234 75.3844 18.8036 75.3471 17.8469C75.1616 18.0349 74.9656 18.2122 74.7955 18.4156C74.3013 18.998 73.4127 18.26 73.8947 17.6655C74.3726 17.1163 74.9316 16.6408 75.4289 16.1078C75.599 14.1289 76.0194 9.56996 78.4933 9.26215C79.0174 9.27349 79.4686 9.60804 79.6962 10.0714C80.5297 12.3273 77.9724 15.0304 76.5719 16.6043C76.5379 17.1705 76.5168 17.7384 76.5103 18.3062C77.1535 17.0255 78.7112 13.7943 80.439 15.4071C81.8031 16.9283 79.7245 20.5281 81.7569 19.1754C80.9185 17.8923 81.4718 15.1333 83.0457 14.6529C83.8987 14.4496 84.6155 15.1932 84.6844 16.0049C84.8108 17.0183 84.2988 17.9806 83.752 18.7987C84.3831 18.6821 84.9477 18.3459 85.445 17.9514C85.2077 16.0065 85.8298 10.3039 88.3304 10.1313C89.206 10.1143 89.7277 11.0021 89.752 11.7927C89.8314 14.1815 88.3506 16.7234 86.7143 18.3864C87.2417 20.2244 89.3543 18.7234 90.1821 17.9004C89.9918 15.8526 90.5531 12.6789 91.7358 10.9794C92.2307 10.269 93.3388 9.86077 94.0055 10.5736C94.6349 11.2216 94.5296 12.2147 94.3724 13.0313C93.9464 14.9996 92.8569 16.8004 91.4887 18.26C91.7042 18.8935 92.4348 18.7971 92.9516 18.644C94.2388 18.1831 94.9435 16.8935 95.756 15.8866C95.0731 13.4411 98.762 11.6113 99.726 14.4342C100.171 14.0859 100.618 13.1268 101.276 13.6104C101.512 13.8073 101.567 14.2001 101.352 14.4359C100.868 14.9624 100.368 15.4776 99.8207 15.9385C99.7009 16.7072 99.3444 17.4338 98.8276 18.013C98.0362 19.0385 96.1594 19.4994 95.5972 18.017C95.0504 18.6667 94.4299 19.2961 93.6377 19.6355C92.6438 20.0624 91.2368 20.1417 90.6131 19.0879C89.2805 20.3378 86.7646 21.2969 85.7553 19.1762C84.8966 19.7667 83.782 20.2066 82.7395 19.9004C81.9254 20.6723 80.2575 21.0968 79.7521 19.778C79.3325 18.6262 80.2065 17.2013 79.5066 16.1361C78.3572 16.8068 77.8347 18.3597 77.2483 19.5026C76.9631 20.1782 76.3426 21.8234 75.4856 20.7485ZM82.6334 18.3329C83.0117 17.8502 83.3195 17.3018 83.4847 16.7088C83.607 16.3824 83.5082 15.3771 83.0578 16.0089C82.6067 16.6691 82.4122 17.5569 82.6334 18.3329ZM96.9929 17.8048C97.53 17.7489 97.935 17.3026 98.2225 16.8797C97.8167 17.0037 97.3841 17.0434 96.9702 16.9372C96.8892 16.917 96.809 16.8903 96.7321 16.8579C96.6997 17.1616 96.5134 17.8007 96.9929 17.8048ZM86.5653 16.8109C87.4855 15.6509 89.1801 12.7469 88.3846 11.3156C87.0902 11.6582 86.5612 15.5902 86.5653 16.8109ZM91.3121 16.6707C92.2955 15.3828 93.1177 13.8818 93.304 12.2512C93.4287 10.4059 92.3506 11.9677 92.114 12.7445C91.6669 14.0049 91.4134 15.3382 91.3121 16.6707ZM97.5073 15.8234C97.9504 15.8056 98.3497 15.5715 98.7021 15.3204C98.5012 12.5533 95.5097 15.6452 97.5073 15.8234ZM76.7558 14.6384C77.3301 13.9644 79.4629 11.1196 78.4487 10.4424C77.241 11.2419 76.985 13.301 76.7558 14.6384Z" fill="#092241"/>
<path d="M17.0817 45.8205C15.0879 46.1218 9.91052 42.9894 9.00984 42.3762C8.10212 41.7581 7.21189 41.0477 6.69589 40.0789C6.35122 39.4317 6.28059 38.4653 6.92376 38.113C7.21505 37.9542 7.56879 37.9761 7.89839 38.0166C9.09806 38.164 10.2747 38.4969 11.3733 39.0016C10.9068 37.716 10.7206 36.3301 10.8315 34.9668C10.9001 34.1243 11.2272 33.1312 12.0509 32.9409C12.9873 32.7246 13.736 33.6966 14.1788 34.5496C15.7536 37.5824 16.9587 40.8071 17.7592 44.1299C17.8527 44.5179 17.9393 44.9343 17.7988 45.3085C17.6862 45.6074 17.4335 45.7678 17.0817 45.8205Z" fill="#5787C7"/>
<path d="M85.3136 61.9214C84.3092 60.6286 84.472 55.7173 84.549 54.836C84.6259 53.9482 84.7758 53.0353 85.2577 52.2852C85.5793 51.7838 86.2355 51.3504 86.7401 51.6663C86.9685 51.8089 87.0933 52.0681 87.1954 52.3176C87.568 53.2264 87.7988 54.192 87.8774 55.1705C88.6032 54.3297 89.5112 53.6477 90.5206 53.1851C91.1443 52.8992 91.9778 52.7364 92.4395 53.2443C92.9644 53.8218 92.5732 54.738 92.1447 55.39C90.6218 57.71 88.8162 59.8436 86.7806 61.7302C86.5425 61.9505 86.2824 62.1773 85.9617 62.2259C85.7049 62.2648 85.491 62.1498 85.3136 61.9214Z" fill="#5787C7"/>
<path d="M30.887 12.903C29.4598 12.5624 26.8215 9.03641 26.381 8.37739C25.9371 7.71345 25.5303 6.99057 25.4466 6.19647C25.3906 5.66597 25.6065 4.99467 26.1364 4.93246C26.3764 4.90462 26.609 5.01596 26.8205 5.13303C27.5896 5.55955 28.2924 6.1056 28.8961 6.74497C28.932 5.75111 29.1845 4.76462 29.6311 3.87556C29.9072 3.32623 30.3988 2.74498 31.0065 2.84159C31.6972 2.95129 31.9371 3.81088 32.0033 4.50757C32.2383 6.9832 32.1717 9.48749 31.8054 11.9476C31.7627 12.2349 31.7075 12.5395 31.5108 12.7531C31.353 12.9242 31.1389 12.9635 30.887 12.903Z" fill="#5787C7"/>
<path d="M61.5489 9.30137C61.7726 11.1673 61.4779 13.0934 60.6171 14.7666C56.5061 22.7548 44.0945 20.7318 42.7262 11.8578C42.118 7.91295 44.2889 3.6951 47.8528 1.89758C51.4163 0.100069 56.0996 0.861485 58.9098 3.6951C60.3959 5.19372 61.2976 7.20914 61.5489 9.30137Z" fill="#FFD460"/>
<path d="M49.702 10.4685C49.3892 9.88769 49.0846 9.18458 48.8792 8.59244C48.7469 8.34781 48.8161 8.02541 49.0837 7.91039C49.8317 7.68358 49.8163 8.79252 50.1096 9.22751C50.2259 9.60094 50.5745 9.93548 50.5343 10.3381C50.4586 10.7188 49.8876 10.8152 49.702 10.4685Z" fill="black"/>
<path d="M52.4501 9.24388C52.1375 8.66308 51.8329 7.95997 51.6272 7.36783C51.4951 7.1232 51.564 6.80081 51.8321 6.68579C52.5798 6.45898 52.5644 7.56791 52.8576 8.0029C52.9742 8.37633 53.3226 8.71087 53.2829 9.11346C53.2067 9.49418 52.6356 9.59058 52.4501 9.24388Z" fill="black"/>
<path d="M49.89 14.9251C49.2534 14.5703 48.7171 14.0503 48.3169 13.4444C48.3147 13.4411 48.3125 13.4379 48.3127 13.4387C48.3117 13.4371 48.3106 13.4354 48.3096 13.4338C48.3047 13.4265 48.3 13.4192 48.2954 13.412C48.2714 13.3747 48.2475 13.3374 48.2247 13.2994C48.0954 13.0871 48.1931 12.7963 48.4038 12.6797C48.6287 12.5558 48.8932 12.6465 49.023 12.8587C49.027 12.8652 49.0311 12.8717 49.0351 12.8781C49.043 12.8911 49.051 12.9041 49.059 12.917C49.1529 13.0596 49.2546 13.1965 49.3639 13.3277C49.4723 13.4508 49.5869 13.5683 49.7083 13.6793C49.8258 13.7813 49.9483 13.8769 50.0757 13.9668C50.2031 14.0519 50.334 14.1305 50.4688 14.2017C50.6087 14.2714 50.7514 14.3338 50.8972 14.3881C51.0471 14.4399 51.1978 14.4836 51.3517 14.5201C51.504 14.5509 51.6571 14.5744 51.811 14.5906C51.9706 14.6019 52.1293 14.6059 52.2889 14.6011C52.4396 14.593 52.5886 14.5776 52.7385 14.5541C52.9053 14.5233 53.0706 14.4836 53.2334 14.4342C53.3873 14.384 53.5372 14.3241 53.6846 14.2568C53.8296 14.1863 53.9705 14.1086 54.1074 14.0227C54.2411 13.9336 54.3699 13.838 54.4938 13.7352C54.6161 13.6282 54.732 13.5156 54.8413 13.3958C54.9466 13.2767 55.0446 13.1511 55.1362 13.0207C55.2261 12.8854 55.3087 12.7461 55.384 12.6011C55.4488 12.4691 55.5072 12.3346 55.5582 12.1969C55.6084 12.0543 55.6505 11.9093 55.6854 11.7619C55.7186 11.6064 55.7429 11.4484 55.7591 11.2905C55.7712 11.1309 55.7753 10.9713 55.7704 10.8117C55.7623 10.6578 55.7461 10.5064 55.7226 10.3549C55.6927 10.1872 55.653 10.0228 55.6068 9.87372C55.6036 9.86319 55.6003 9.85347 55.5979 9.84294C55.5242 9.6056 55.7048 9.34882 55.9341 9.29374C56.0491 9.2662 56.173 9.28482 56.2743 9.34557C56.3788 9.40714 56.442 9.50192 56.4792 9.6137C56.5408 9.81459 56.5886 10.0179 56.6137 10.1661C56.7911 11.1925 56.6185 12.252 56.1155 13.1665C55.7226 13.881 55.1329 14.4804 54.4298 14.8927C53.7332 15.301 52.9329 15.5148 52.1261 15.5156C51.3428 15.5164 50.5733 15.3042 49.89 14.9251Z" fill="black"/>
<path d="M32.1939 65.5525C32.4177 67.4188 32.1231 69.3451 31.262 71.0178C27.1507 79.0055 14.7396 76.9829 13.3713 68.1089C12.763 64.1641 14.9339 59.9462 18.4978 58.1487C22.0617 56.3513 26.744 57.1127 29.5549 59.9462C31.0407 61.4448 31.9431 63.461 32.1939 65.5525Z" fill="#FFD460"/>
<path d="M20.347 66.7202C20.0342 66.1394 19.7297 65.4371 19.5242 64.8441C19.392 64.5995 19.4611 64.2771 19.7288 64.1621C20.4768 63.9353 20.4613 65.0442 20.7546 65.4792C20.8709 65.8534 21.2196 66.188 21.1793 66.5898C21.1036 66.9713 20.5326 67.0669 20.347 66.7202Z" fill="black"/>
<path d="M23.095 65.4956C22.7823 64.9148 22.4778 64.2125 22.2723 63.6195C22.14 63.3749 22.2092 63.0525 22.4769 62.9375C23.2248 62.7107 23.2093 63.8196 23.5026 64.2546C23.619 64.6288 23.9677 64.9634 23.9274 65.3652C23.8518 65.7467 23.2808 65.8423 23.095 65.4956Z" fill="black"/>
<path d="M20.5345 71.178C19.8979 70.8241 19.3617 70.3032 18.9614 69.6973C18.9593 69.6941 18.9571 69.6908 18.9572 69.6916C18.9563 69.69 18.9552 69.6884 18.9542 69.6868C18.9493 69.6795 18.9445 69.6722 18.9399 69.6649C18.916 69.6284 18.8921 69.5904 18.8692 69.5523C18.74 69.3401 18.8377 69.0493 19.0483 68.9334C19.2732 68.8087 19.5378 68.9002 19.6675 69.1116C19.6715 69.1181 19.6757 69.1246 19.6796 69.1319C19.6876 69.144 19.6955 69.157 19.7036 69.17C19.7975 69.3125 19.8991 69.4494 20.0085 69.5806C20.1169 69.7038 20.2315 69.8212 20.3528 69.9322C20.4704 70.0343 20.5929 70.1307 20.7203 70.2206C20.8477 70.3056 20.9786 70.3834 21.1134 70.4555C21.2533 70.5243 21.3961 70.5867 21.542 70.6418C21.6915 70.6928 21.8427 70.7366 21.9963 70.773C22.1484 70.8046 22.3014 70.8281 22.4559 70.8435C22.6147 70.8548 22.774 70.8589 22.9332 70.854C23.0837 70.8459 23.2336 70.8305 23.3827 70.807C23.5502 70.7763 23.715 70.7366 23.878 70.6872C24.0319 70.6369 24.182 70.5778 24.3292 70.5106C24.4741 70.4393 24.6148 70.3615 24.7516 70.2757C24.8856 70.1866 25.0141 70.091 25.1384 69.9881C25.2606 69.8812 25.3764 69.7686 25.486 69.6495C25.5913 69.5296 25.6891 69.4041 25.7806 69.2736C25.8708 69.1384 25.9535 68.999 26.0287 68.8549C26.0932 68.722 26.1517 68.5883 26.2028 68.4506C26.253 68.3073 26.2953 68.1623 26.3295 68.0148C26.363 67.8593 26.3877 67.7022 26.4032 67.5434C26.4159 67.3838 26.4199 67.2243 26.4147 67.0647C26.4067 66.9116 26.3905 66.7593 26.3668 66.6078C26.3375 66.4409 26.2972 66.2757 26.2515 66.1267C26.2484 66.1169 26.2453 66.1064 26.2421 66.0959C26.1689 65.8585 26.349 65.6017 26.579 65.5467C26.694 65.5191 26.8177 65.5378 26.9188 65.5985C27.0231 65.6601 27.0862 65.7548 27.1236 65.8666C27.1854 66.0675 27.233 66.2708 27.2582 66.4191C27.4353 67.4462 27.2629 68.5049 26.7601 69.4195C26.3674 70.1339 25.7772 70.7333 25.0745 71.1456C24.3779 71.5539 23.5776 71.7677 22.7707 71.7686C21.9877 71.7694 21.2179 71.5571 20.5345 71.178Z" fill="black"/>
<path d="M3.35742 11.59L8.011 18.9289L9.89377 16.0533L14.954 22.6445L10.4053 11.496L7.46609 15.773L3.35742 11.59Z" fill="#D4E5F5"/>
<path d="M77.1677 33.7275L71.9098 40.646L75.2617 41.409L70.8462 48.4482L79.7112 40.3009L74.6785 39.0356L77.1677 33.7275Z" fill="#D4E5F5"/>
<rect x="30.1851" y="38.8438" width="24.5789" height="4.19708" transform="rotate(-22.1403 30.1851 38.8438)" fill="#D4E5F5"/>
<rect x="33.543" y="47.2383" width="24.5789" height="4.19708" transform="rotate(-22.1403 33.543 47.2383)" fill="#D4E5F5"/>
</svg>
