<svg width="342" height="193" viewBox="0 0 342 193" fill="none" xmlns="http://www.w3.org/2000/svg">
<g clip-path="url(#clip0_605_7712)">
<rect width="342" height="192.375" fill="#FEFAEF"/>
<path d="M213.055 195.198C213.077 195.232 213.104 195.264 213.137 195.292C213.298 195.427 213.54 195.406 213.675 195.245C213.72 195.191 218.257 189.769 224.304 181.229C229.884 173.348 237.932 161.12 244.58 147.623C244.673 147.433 244.595 147.204 244.405 147.111C244.217 147.018 243.987 147.096 243.895 147.285C237.27 160.735 229.248 172.924 223.685 180.781C217.655 189.297 213.134 194.7 213.089 194.754C212.981 194.882 212.973 195.062 213.055 195.198Z" fill="white"/>
<path d="M244.693 146.972C244.693 146.972 236.064 132.953 257.07 123.562C271.236 117.228 273.288 106 273.288 106C273.288 106 280.027 130.321 244.693 146.972Z" fill="#FFF0C6"/>
<path d="M240.762 154.037C240.762 154.037 246.573 146.26 258.459 148.831C270.346 151.402 272.641 146.044 272.641 146.044C272.641 146.044 266.714 169.641 240.762 154.037Z" fill="#FFF0C6"/>
<path d="M233.879 164.912C233.879 164.912 224.886 157.863 227.509 143.68C230.132 129.497 223.163 129.037 223.163 129.037C223.163 129.037 251.414 131.339 233.879 164.912Z" fill="#FFF0C6"/>
<path d="M227.641 176.229C227.641 176.229 231.435 165.245 248.278 167.638C265.119 170.03 268.863 165.049 268.863 165.049C268.863 165.049 250.767 196.826 227.641 176.229Z" fill="#FFF0C6"/>
<path d="M244.037 147.309C244.077 147.374 244.136 147.428 244.212 147.461C244.404 147.544 244.631 147.456 244.714 147.262C244.738 147.208 247.128 141.752 251.08 137.105C255.925 131.406 261.301 128.4 261.355 128.371C261.539 128.269 261.607 128.036 261.504 127.852C261.401 127.666 261.17 127.601 260.985 127.702C260.931 127.733 255.437 130.8 250.496 136.611C246.47 141.347 244.037 146.903 244.014 146.959C243.962 147.077 243.976 147.207 244.037 147.309Z" fill="white"/>
<path d="M240.655 154.292C240.739 154.431 240.908 154.505 241.075 154.463C241.142 154.446 247.928 152.787 256.135 154.469C256.341 154.511 256.544 154.378 256.586 154.171C256.629 153.964 256.495 153.763 256.288 153.721C247.903 152.003 240.957 153.706 240.888 153.723C240.683 153.774 240.56 153.981 240.611 154.186C240.62 154.225 240.636 154.26 240.655 154.292Z" fill="white"/>
<path d="M233.929 165.537C233.98 165.618 234.06 165.682 234.16 165.708C234.366 165.76 234.573 165.637 234.626 165.433C234.632 165.406 235.314 162.746 235.675 159.123C236.011 155.772 236.137 150.881 234.83 146.611C234.768 146.409 234.555 146.295 234.352 146.357C234.151 146.419 234.037 146.632 234.099 146.834C236.532 154.782 233.913 165.139 233.885 165.242C233.859 165.346 233.878 165.452 233.929 165.537Z" fill="white"/>
<path d="M227.39 175.981C227.455 176.089 227.571 176.161 227.706 176.165C227.821 176.168 239.296 176.433 247.94 174.422C248.145 174.374 248.273 174.169 248.225 173.964C248.177 173.758 247.972 173.63 247.766 173.678C239.22 175.668 227.84 175.404 227.725 175.401C227.514 175.396 227.34 175.562 227.334 175.773C227.333 175.849 227.352 175.921 227.39 175.981Z" fill="white"/>
<path d="M-5.50091 140.379C-5.464 140.405 -5.42284 140.426 -5.37789 140.441C-5.15697 140.511 -4.91979 140.388 -4.84965 140.167C-4.82637 140.093 -2.47911 132.664 0.0962703 121.426C2.47374 111.053 5.53983 95.2165 6.64734 78.6736C6.6625 78.4419 6.48715 78.2414 6.25477 78.2263C6.02378 78.2106 5.82274 78.3861 5.80752 78.6176C4.70362 95.1021 1.64758 110.888 -0.722178 121.228C-3.2906 132.436 -5.62911 139.839 -5.6524 139.913C-5.70834 140.089 -5.64139 140.275 -5.50091 140.379Z" fill="white"/>
<path d="M6.48883 77.9635C6.48883 77.9635 -8.18687 67.3027 9.27312 48.9166C21.0469 36.5171 18.424 24.2155 18.424 24.2155C18.424 24.2155 35.5001 46.1665 6.48883 77.9635Z" fill="#FFF0C6"/>
<path d="M5.4502 86.8121C5.4502 86.8121 8.10564 76.45 21.2954 74.0795C34.485 71.7089 34.5752 65.2868 34.5752 65.2868C34.5752 65.2868 38.4418 91.8165 5.4502 86.8121Z" fill="#FFF0C6"/>
<path d="M3.00249 100.781C3.00249 100.781 -9.11925 97.3738 -12.4004 81.8223C-15.6817 66.2707 -22.9751 68.7279 -22.9751 68.7279C-22.9751 68.7279 6.77444 59.2143 3.00249 100.781Z" fill="#FFF0C6"/>
<path d="M1.39706 114.93C1.39706 114.93 0.652277 102.146 18.8168 97.5137C36.9797 92.8819 38.7039 86.235 38.7039 86.235C38.7039 86.235 33.6061 126.207 1.39706 114.93Z" fill="#FFF0C6"/>
<path d="M5.96299 78.5826C6.03064 78.632 6.11312 78.6622 6.20457 78.6632C6.43582 78.6678 6.62909 78.4825 6.63319 78.2503C6.63428 78.1849 6.7791 71.6227 8.85485 65.23C11.3984 57.3891 15.6148 52.0702 15.6576 52.0168C15.8021 51.8363 15.7732 51.5709 15.5911 51.4263C15.4082 51.2799 15.1458 51.31 14.9998 51.4912C14.9573 51.5453 10.6471 56.9765 8.05307 64.971C5.93846 71.4861 5.79239 78.1685 5.79185 78.2352C5.78907 78.3771 5.85725 78.5044 5.96299 78.5826Z" fill="white"/>
<path d="M5.44765 87.1168C5.59247 87.2228 5.79501 87.2276 5.94759 87.1152C6.00923 87.0692 12.2262 82.531 21.2947 80.7985C21.522 80.7552 21.6729 80.5348 21.6285 80.3064C21.5857 80.0776 21.3649 79.9286 21.1361 79.9725C11.8719 81.7417 5.50933 86.3927 5.44616 86.4391C5.25958 86.5771 5.22066 86.8405 5.35922 87.027C5.38424 87.0628 5.41527 87.0923 5.44765 87.1168Z" fill="white"/>
<path d="M3.31553 101.397C3.40193 101.458 3.51038 101.489 3.62303 101.474C3.85419 101.441 4.01426 101.229 3.98225 100.999C3.97764 100.969 3.55516 97.9725 2.40283 94.1294C1.3375 90.5736 -0.58702 85.5374 -3.71135 81.7358C-3.85917 81.5558 -4.12374 81.53 -4.30417 81.678C-4.4832 81.8255 -4.51036 82.0905 -4.36259 82.2704C1.45291 89.3472 3.13242 100.998 3.14769 101.115C3.16458 101.232 3.22752 101.332 3.31553 101.397Z" fill="white"/>
<path d="M1.03722 114.784C1.14862 114.865 1.2979 114.891 1.43634 114.837C1.55492 114.792 13.3577 110.246 21.3201 104.568C21.5093 104.433 21.553 104.17 21.4188 103.981C21.283 103.792 21.0204 103.748 20.8313 103.883C12.9586 109.498 1.25429 114.006 1.1357 114.052C0.918538 114.134 0.81033 114.377 0.893348 114.595C0.923761 114.673 0.973631 114.738 1.03722 114.784Z" fill="white"/>
<path d="M152.405 62.1277C152.405 62.1277 142.985 66.9986 144.721 74.6358C146.456 82.272 151.579 81.447 151.001 86.5651C150.422 91.6843 146.291 90.7762 144.968 96.9676C143.647 103.16 164.056 100.601 164.056 100.601L164.772 80.3727L152.405 62.1277Z" fill="#2C2E54"/>
<path d="M158.394 86.1296C158.394 86.1296 158.102 94.3101 151.446 95.7411L152.44 107.134L164.554 114.577L183.488 107.134L183.263 94.4381L178.433 76.0601L158.394 86.1296Z" fill="#FDBBAB"/>
<path d="M151.43 95.6949C151.43 95.6949 135.481 95.0828 132.057 110.39C128.634 125.697 132.743 139.814 127.936 144.478C123.13 149.142 112.975 162.413 120.681 174.515C128.388 186.617 140.301 176.084 140.301 176.084L140.536 191.177L201.54 191.18C201.54 191.18 232.405 200.008 225.445 162.624C218.488 125.24 215.947 93.5465 184.251 93.8365C184.251 93.8365 160.031 110.368 151.43 95.6949Z" fill="#EFB758"/>
<path d="M140.3 176.427C140.117 176.427 139.966 176.282 139.958 176.097L139.165 155.966C139.158 155.776 139.305 155.617 139.495 155.609C139.688 155.602 139.844 155.749 139.851 155.939L140.644 176.071C140.651 176.26 140.504 176.419 140.315 176.427C140.309 176.427 140.306 176.427 140.3 176.427Z" fill="#2C2E54"/>
<path d="M196.788 156.043C196.629 156.043 196.486 155.931 196.452 155.769L192.123 134.719C192.085 134.534 192.205 134.353 192.39 134.314C192.577 134.276 192.758 134.396 192.796 134.582L197.124 155.631C197.163 155.816 197.043 155.998 196.858 156.036C196.835 156.04 196.811 156.043 196.788 156.043Z" fill="#2C2E54"/>
<path d="M205.718 160.265C205.673 160.265 205.628 160.255 205.584 160.237L186.303 152.034C186.128 151.96 186.047 151.758 186.121 151.584C186.195 151.41 186.396 151.328 186.572 151.402L205.853 159.605C206.028 159.68 206.109 159.881 206.035 160.056C205.979 160.186 205.852 160.265 205.718 160.265Z" fill="#2C2E54"/>
<path d="M161.538 156.602L139.509 155.952C138.008 155.907 136.762 154.778 136.574 153.29L131.326 112.052C131.089 110.196 132.568 108.567 134.441 108.622L156.47 109.273C157.971 109.317 159.216 110.447 159.405 111.934L164.653 153.172C164.89 155.029 163.41 156.658 161.538 156.602Z" fill="#2C2E54"/>
<path d="M201.54 191.524C201.506 191.524 201.472 191.52 201.438 191.509C194.362 189.314 186.517 183.743 181.182 179.457C175.413 174.82 171.253 170.644 171.211 170.602C171.077 170.468 171.079 170.25 171.212 170.117C171.347 169.984 171.564 169.985 171.699 170.119C171.739 170.16 175.878 174.314 181.619 178.927C186.906 183.174 194.67 188.691 201.642 190.854C201.823 190.91 201.924 191.102 201.868 191.283C201.822 191.43 201.687 191.524 201.54 191.524Z" fill="#2C2E54"/>
<path d="M172.235 166.99C172.235 166.99 187.328 169.415 186.398 152.99L176.721 145.353C176.721 145.353 178.037 134.365 175.281 131.881C172.524 129.396 154.93 121.526 152.839 125.281C150.747 129.036 154.965 129.938 154.965 129.938C154.965 129.938 150.535 128.464 149.497 131.544C148.459 134.623 152.61 135.417 152.61 135.417C152.61 135.417 148.286 135.144 147.759 137.692C147.232 140.241 150.679 141.067 150.679 141.067C150.679 141.067 148.396 141.548 148.188 143.803C147.98 146.059 152.708 148.319 157.438 148.883C162.169 149.447 162.684 151.158 163.025 153.996C163.366 156.833 172.235 166.99 172.235 166.99Z" fill="#FDBBAB"/>
<path d="M175.611 149.764C175.582 149.764 175.551 149.76 175.52 149.751C175.338 149.702 175.23 149.513 175.279 149.33L176.39 145.264C176.44 145.081 176.628 144.973 176.812 145.023C176.995 145.073 177.102 145.261 177.053 145.444L175.942 149.511C175.9 149.663 175.762 149.764 175.611 149.764Z" fill="#2C2E54"/>
<path d="M166.592 134.229C166.564 134.229 166.537 134.226 166.51 134.22C161.904 133.1 154.907 130.285 154.836 130.256C154.661 130.186 154.575 129.985 154.647 129.809C154.717 129.634 154.918 129.55 155.093 129.62C155.163 129.648 162.115 132.445 166.672 133.553C166.857 133.598 166.97 133.783 166.925 133.968C166.887 134.124 166.746 134.229 166.592 134.229Z" fill="#2C2E54"/>
<path d="M164.867 139.014C164.85 139.014 164.833 139.012 164.815 139.009C161.562 138.52 152.878 135.858 152.51 135.745C152.328 135.689 152.226 135.497 152.283 135.316C152.338 135.135 152.529 135.033 152.711 135.089C152.801 135.117 161.714 137.849 164.919 138.331C165.106 138.359 165.234 138.534 165.206 138.721C165.181 138.891 165.034 139.014 164.867 139.014Z" fill="#2C2E54"/>
<path d="M163.111 144.59C161.304 144.59 151.689 141.727 150.581 141.395C150.4 141.341 150.297 141.15 150.351 140.968C150.405 140.787 150.596 140.684 150.778 140.738C153.803 141.644 161.926 143.98 163.152 143.903C163.342 143.889 163.505 144.035 163.515 144.224C163.527 144.414 163.383 144.576 163.193 144.587C163.168 144.589 163.141 144.59 163.111 144.59Z" fill="#2C2E54"/>
<path d="M136.272 150.922C136.272 150.922 123.581 145.833 129.986 140.133C129.986 140.133 125.883 137.49 129.356 133.635C129.356 133.635 126.488 131.288 129.328 128.545C129.328 128.545 127.191 126.644 129.32 124.021C131.449 121.398 139.673 123.196 139.585 126.162C139.497 129.128 137.169 128.918 137.169 128.918C137.169 128.918 139.998 128.931 140.197 131.764C140.396 134.597 137.642 134.445 137.642 134.445C137.642 134.445 140.061 135.365 140.042 137.696C140.024 140.028 137.474 140.094 137.474 140.094C137.474 140.094 140.117 140.667 139.888 142.922C139.659 145.178 135.561 145.338 135.561 145.338L136.272 150.922Z" fill="#FDBBAB"/>
<path d="M135.246 129.313C131.968 129.313 129.305 128.889 129.272 128.884C129.086 128.853 128.958 128.678 128.989 128.49C129.019 128.304 129.196 128.177 129.383 128.207C129.419 128.213 133.127 128.803 137.149 128.576C137.34 128.564 137.501 128.71 137.511 128.9C137.522 129.088 137.378 129.25 137.188 129.261C136.528 129.298 135.876 129.313 135.246 129.313Z" fill="#2C2E54"/>
<path d="M135.515 134.873C131.622 134.873 129.341 133.997 129.23 133.954C129.054 133.884 128.967 133.685 129.036 133.509C129.106 133.333 129.305 133.246 129.481 133.315C129.527 133.333 132.603 134.502 137.615 134.102C137.805 134.088 137.968 134.228 137.984 134.418C137.999 134.606 137.858 134.771 137.669 134.787C136.904 134.847 136.186 134.873 135.515 134.873Z" fill="#2C2E54"/>
<path d="M134.57 140.742C132.426 140.742 130.099 140.491 129.949 140.474C129.76 140.454 129.625 140.284 129.645 140.096C129.666 139.908 129.835 139.772 130.024 139.792C130.08 139.798 135.649 140.4 137.357 139.773C137.534 139.707 137.732 139.798 137.798 139.977C137.863 140.154 137.771 140.351 137.594 140.417C136.924 140.663 135.776 140.742 134.57 140.742Z" fill="#2C2E54"/>
<path d="M134.168 145.713C133.802 145.713 133.594 145.674 133.121 145.58L133.101 145.575C132.915 145.539 132.794 145.358 132.831 145.172C132.868 144.986 133.05 144.866 133.234 144.903L133.255 144.906C133.984 145.052 133.984 145.052 135.337 144.973L135.463 144.966C135.652 144.955 135.815 145.098 135.826 145.287C135.837 145.476 135.692 145.639 135.503 145.65L135.377 145.658C134.783 145.693 134.434 145.713 134.168 145.713Z" fill="#2C2E54"/>
<path d="M146.017 114.214C146.276 115.196 145.756 115.973 144.856 115.951C143.956 115.929 143.016 115.115 142.757 114.135C142.498 113.154 143.018 112.376 143.918 112.398C144.818 112.42 145.758 113.233 146.017 114.214Z" fill="white"/>
<path d="M174.496 72.0381C174.421 72.0381 174.347 72.0148 174.284 71.9652C174.135 71.8487 174.108 71.633 174.226 71.4844C175.394 69.9971 174.653 69.0237 174.621 68.9829C174.505 68.8352 174.528 68.6206 174.675 68.502C174.821 68.3835 175.035 68.4049 175.154 68.5496C175.201 68.607 176.287 69.9709 174.766 71.9079C174.698 71.9934 174.597 72.0381 174.496 72.0381Z" fill="#2C2E54"/>
<path d="M183.144 69.0625C182.565 76.328 176.368 84.8314 167.775 86.8962C164.066 87.7868 159.341 87.7815 156.537 85.4925C152.598 82.2774 151.001 74.4884 151.001 68.8154C151.001 59.1034 157.362 51.4771 166.535 51.4771C175.708 51.4771 183.915 59.3818 183.144 69.0625Z" fill="#FDBBAB"/>
<path d="M148.327 65.1099C148.327 65.1099 145.629 56.6794 152.405 49.9922C159.181 43.3049 169.216 38.846 178.989 43.1391C188.762 47.4322 188.939 50.884 189.948 54.4063C190.856 57.5779 189.72 82.4605 176.89 85.9189C176.89 85.9189 171.763 79.6809 176.225 73.5718C180.687 67.4626 178.906 68.0564 178.185 66.8341C178.185 66.8341 170.527 70.6197 167.502 56.2548C167.502 56.2548 157.222 61.9842 148.327 65.1099Z" fill="#2C2E54"/>
<path d="M184.471 51.4768C184.471 51.4768 186.472 56.1853 192.71 58.2688C198.949 60.3535 200.159 64.2893 199.601 70.8488C199.042 77.4084 206.863 73.4726 211.146 77.9487C215.429 82.4248 207.515 85.8202 208.632 88.9843C209.749 92.1485 219.525 95.0048 215.336 102.413C211.146 109.822 202.816 100.051 197.029 97.3356C190.463 94.2555 177.947 95.3201 176.566 91.6094C174.774 86.797 174.901 85.4554 174.437 80.4266C173.875 74.3369 183.488 70.0389 184.471 51.4768Z" fill="#2C2E54"/>
<path d="M172.872 69.6779C172.872 69.6779 174.677 64.9363 177.926 66.2882C181.175 67.6411 179.189 74.4015 175.083 75.2998C170.976 76.1981 172.872 69.6779 172.872 69.6779Z" fill="#FDBBAB"/>
<path d="M157.705 70.4691C157.581 71.3032 156.987 71.9048 156.38 71.813C155.773 71.7221 155.382 70.9724 155.508 70.1402C155.634 69.3061 156.226 68.7045 156.833 68.7954C157.44 68.8872 157.83 69.636 157.705 70.4691Z" fill="#2C2E54"/>
<path d="M165.562 70.9078C165.437 71.7413 164.843 72.3431 164.237 72.2515C163.63 72.1609 163.239 71.4115 163.365 70.5779C163.49 69.7453 164.083 69.1435 164.69 69.2351C165.298 69.3258 165.688 70.0752 165.562 70.9078Z" fill="#2C2E54"/>
<path d="M169.555 73.4311C169.522 74.555 168.583 75.4388 167.459 75.4053C166.334 75.3728 165.45 74.4349 165.483 73.311C165.516 72.1871 166.455 71.3033 167.579 71.3368C168.704 71.3693 169.589 72.3081 169.555 73.4311Z" fill="#FDAA96"/>
<path d="M155.431 73.0133C155.398 74.1366 154.459 75.0206 153.335 74.9874C152.21 74.9541 151.325 74.0165 151.358 72.8923C151.393 71.7689 152.331 70.8849 153.455 70.9181C154.579 70.9514 155.465 71.889 155.431 73.0133Z" fill="#FDAA96"/>
<path d="M159.618 77.959C159.58 77.959 159.543 77.9533 159.506 77.941C159.274 77.8616 157.239 77.1288 156.954 75.8068C156.825 75.213 157.065 74.6249 157.667 74.0575C159.648 72.1919 159.558 67.7325 159.557 67.6881C159.552 67.499 159.703 67.341 159.892 67.3354C160.083 67.3297 160.239 67.481 160.244 67.6701C160.249 67.8649 160.344 72.4812 158.138 74.5568C157.724 74.9473 157.551 75.3189 157.626 75.6622C157.798 76.464 159.202 77.1099 159.728 77.2923C159.907 77.3529 160.003 77.5486 159.941 77.7273C159.893 77.8701 159.76 77.959 159.618 77.959Z" fill="#2C2E54"/>
<path d="M167.752 66.8115C167.627 66.8115 167.505 66.7418 167.445 66.6227C166.802 65.354 166.037 64.648 165.171 64.525C163.824 64.3333 162.627 65.5932 162.616 65.6058C162.487 65.7443 162.27 65.7521 162.131 65.6223C161.991 65.4925 161.985 65.2766 162.114 65.1381C162.173 65.0751 163.57 63.6041 165.267 63.8462C166.369 64.0021 167.307 64.832 168.058 66.3128C168.143 66.4823 168.075 66.6885 167.907 66.7738C167.856 66.7989 167.803 66.8115 167.752 66.8115Z" fill="#2C2E54"/>
<path d="M154.176 66.4111C154.117 66.4111 154.058 66.3956 154.003 66.3646C153.839 66.2686 153.784 66.0583 153.879 65.8954C154.716 64.4608 155.702 63.6882 156.81 63.5971C158.517 63.4556 159.827 65.0065 159.881 65.0724C160.003 65.2188 159.982 65.435 159.837 65.5552C159.69 65.6764 159.475 65.657 159.354 65.5106C159.339 65.4941 158.212 64.1671 156.863 64.2805C155.993 64.3542 155.189 65.0133 154.472 66.2405C154.409 66.3501 154.294 66.4111 154.176 66.4111Z" fill="#2C2E54"/>
<path d="M160.227 81.7129C158.333 81.7129 156.836 80.0515 156.769 79.9763C156.644 79.8348 156.656 79.6181 156.799 79.4927C156.941 79.3664 157.157 79.3798 157.283 79.5213C157.298 79.5375 158.797 81.1952 160.495 81.0125C161.52 80.9024 162.438 80.1375 163.224 78.7413C163.316 78.5765 163.526 78.5183 163.692 78.6105C163.857 78.7037 163.915 78.9123 163.823 79.078C162.92 80.6794 161.824 81.5606 160.565 81.695C160.451 81.7066 160.338 81.7129 160.227 81.7129Z" fill="#2C2E54"/>
<path d="M176.564 72.584C176.495 72.584 176.425 72.5633 176.365 72.5191C176.216 72.4089 176.184 72.1985 176.294 72.049C177.39 70.5669 176.614 69.6484 176.606 69.6385C176.484 69.4989 176.499 69.2874 176.639 69.1655C176.779 69.0435 176.991 69.0573 177.113 69.197C177.159 69.251 178.247 70.5364 176.835 72.4483C176.77 72.5368 176.668 72.584 176.564 72.584Z" fill="#2C2E54"/>
<path d="M161.455 87.8438C159.319 87.8438 157.958 87.1507 157.898 87.1197C157.734 87.0333 157.67 86.8314 157.755 86.6661C157.84 86.5027 158.043 86.4379 158.207 86.5234C158.221 86.5309 159.684 87.269 161.902 87.161C164.839 87.0192 167.775 85.4603 170.393 82.6543C170.52 82.5181 170.732 82.5106 170.868 82.6373C171.004 82.7641 171.011 82.9764 170.886 83.1125C167.407 86.8398 164.075 87.7376 161.893 87.8334C161.743 87.84 161.597 87.8438 161.455 87.8438Z" fill="#2C2E54"/>
<path d="M201.438 191.612H134.819C134.639 191.612 134.493 191.467 134.493 191.287C134.493 191.107 134.639 190.961 134.819 190.961H201.438C201.618 190.961 201.764 191.107 201.764 191.287C201.764 191.467 201.618 191.612 201.438 191.612Z" fill="#2C2E54"/>
<path d="M84.8749 92.4265C84.8749 99.2902 79.3061 104.854 72.4375 104.854C65.5685 104.854 60 99.2902 60 92.4265C60 85.5636 65.5685 79.9995 72.4375 79.9995C79.3061 79.9995 84.8749 85.5636 84.8749 92.4265Z" fill="#2C2E54"/>
<path d="M77.0669 88.9428C73.7504 88.7063 72.3974 91.7827 72.3974 91.7827C72.3974 91.7827 71.0442 88.7063 67.7282 88.9428C64.4123 89.1801 64.0062 92.763 67.4575 94.6903C69.8649 96.0348 71.3175 97.1155 71.9759 97.6461C72.2216 97.8445 72.5726 97.8445 72.819 97.6461C73.477 97.1155 74.9293 96.0348 77.3371 94.6903C80.7883 92.763 80.3818 89.1801 77.0669 88.9428Z" fill="white"/>
<path d="M71.9419 2.3392C67.2075 -0.306108 63.0796 3.30075 63.0796 3.30075C63.0796 3.30075 63.2109 -2.17955 58.1498 -4.12583C53.0884 -6.07091 50.0081 -1.06053 53.7711 4.17508C56.3958 7.82736 57.7928 10.429 58.398 11.6686C58.6235 12.1317 59.1418 12.3746 59.6431 12.2522C60.9823 11.9241 63.8753 11.3334 68.362 11.0146C74.7933 10.5576 76.6734 4.98458 71.9419 2.3392Z" fill="#C24229"/>
<path d="M247.008 24.5C247.008 26.9854 244.991 29 242.504 29C240.016 29 238 26.9854 238 24.5C238 22.0149 240.016 20 242.504 20C244.991 20 247.008 22.0149 247.008 24.5Z" fill="#2C2E54"/>
<path d="M244.18 23.2388C242.979 23.1532 242.489 24.2672 242.489 24.2672C242.489 24.2672 241.999 23.1532 240.798 23.2388C239.598 23.3248 239.451 24.6222 240.7 25.3201C241.572 25.807 242.098 26.1983 242.337 26.3905C242.425 26.4623 242.553 26.4623 242.642 26.3905C242.88 26.1983 243.406 25.807 244.278 25.3201C245.528 24.6222 245.38 23.3248 244.18 23.2388Z" fill="white"/>
<path d="M250 108.006C250 111.869 246.866 115 243 115C239.134 115 236 111.869 236 108.006C236 104.143 239.134 101.012 243 101.012C246.866 101.012 250 104.143 250 108.006Z" fill="#C24229"/>
<path d="M245.605 106.045C243.739 105.912 242.977 107.644 242.977 107.644C242.977 107.644 242.216 105.912 240.349 106.045C238.483 106.179 238.254 108.195 240.197 109.28C241.552 110.037 242.369 110.645 242.74 110.944C242.878 111.055 243.076 111.055 243.215 110.944C243.585 110.645 244.402 110.037 245.757 109.28C247.7 108.195 247.471 106.179 245.605 106.045Z" fill="white"/>
<path d="M253.551 56.3301C253.551 56.3301 248.055 56.5614 246.298 52.0786C244.542 47.5958 242.769 50.154 242.773 51.5565C242.777 52.9616 242.999 56.6693 247.564 59.1461C247.564 59.1461 240.895 62.3076 241.678 64.9098C242.236 66.7613 244.56 65.5787 244.56 65.5787C244.56 65.5787 242.724 66.64 243.65 68.3418C244.443 69.8014 246.539 68.7837 246.539 68.7837C246.539 68.7837 244.641 69.9756 245.642 71.6346C246.443 72.9618 251.691 71.3915 259.142 66.0142L253.551 56.3301Z" fill="#FDBBAB"/>
<path d="M261.839 65.7825L261.766 65.825C260.633 66.4788 259.186 66.0916 258.532 64.9599L254.098 57.2794C253.445 56.1479 253.833 54.7007 254.966 54.0469L255.039 54.0044C256.172 53.3506 257.619 53.7379 258.272 54.8693L262.707 62.5498C263.36 63.6816 262.972 65.1287 261.839 65.7825Z" fill="#EFB758"/>
<path d="M247.777 64.2322C246.356 65.0526 244.778 65.788 244.679 65.8341C244.538 65.9004 244.371 65.839 244.305 65.6981C244.24 65.5576 244.302 65.3894 244.442 65.3252C244.478 65.3078 248.099 63.62 249.264 62.5473C249.378 62.4425 249.556 62.4494 249.661 62.5639C249.766 62.6775 249.759 62.8556 249.644 62.9609C249.221 63.3501 248.521 63.8025 247.777 64.2322Z" fill="#2C2E54"/>
<path d="M249.863 67.4895C248.528 68.2602 246.913 68.9338 246.644 69.045C246.501 69.1026 246.337 69.0347 246.278 68.8918C246.219 68.7481 246.288 68.5834 246.431 68.5248C247.531 68.0727 250.516 66.7115 251.105 65.8555C251.193 65.7279 251.368 65.6948 251.496 65.7825C251.623 65.8703 251.656 66.0455 251.567 66.1737C251.283 66.5878 250.617 67.0538 249.863 67.4895Z" fill="#2C2E54"/>
<rect x="131" y="87" width="3" height="12" rx="1.5" fill="#DC4A4E"/>
<rect x="114" y="97.1211" width="3" height="12" rx="1.5" transform="rotate(-45 114 97.1211)" fill="#DC4A4E"/>
<rect x="109" y="114" width="3" height="12" rx="1.5" transform="rotate(-90 109 114)" fill="#DC4A4E"/>
<path d="M134.731 34.4308L118.214 42.9782C117.625 43.2831 116.9 43.0529 116.595 42.4642L111.551 32.7175C111.247 32.1288 111.477 31.4043 112.067 31.0994L128.584 22.552C129.173 22.2472 129.897 22.4773 130.202 23.066L135.246 32.8127C135.551 33.4014 135.32 34.1259 134.731 34.4308Z" fill="#EFB758"/>
<path d="M124.24 34.3903C123.703 34.6681 123.075 34.7693 122.455 34.6434L112.01 32.5198C111.873 32.4918 111.785 32.3585 111.813 32.222C111.841 32.0851 111.975 31.9969 112.111 32.0245L122.556 34.148C123.565 34.3533 124.599 33.818 125.014 32.8758L129.313 23.123C129.369 22.9953 129.518 22.9373 129.646 22.9935C129.774 23.0495 129.832 23.1986 129.775 23.3266L125.477 33.0794C125.222 33.6585 124.776 34.1127 124.24 34.3903Z" fill="white"/>
<path d="M322.379 42.0487L308.278 38.2702C306.07 37.6787 304.686 35.6851 305.187 33.8173L327.282 39.7377C326.782 41.6055 324.587 42.6401 322.379 42.0487Z" fill="#C24229"/>
<path d="M307.934 22.4422C306.012 29.6171 309.525 36.7926 315.781 38.4689C322.038 40.1453 328.668 35.6878 330.59 28.5128L307.934 22.4422Z" fill="#C24229"/>
<path d="M324.55 37.6726C323.873 37.4913 323.273 37.2131 322.826 36.8476L323.908 35.5257C324.663 36.1435 326.615 36.4742 328.208 35.961C328.924 35.7306 329.835 35.2345 330.118 34.1794C330.456 32.9184 329.705 31.6176 328.444 31.2798C328.22 31.2198 327.99 31.1926 327.761 31.1992L327.712 29.492C328.107 29.4807 328.502 29.5272 328.886 29.6301C331.057 30.2117 332.349 32.4508 331.768 34.6215C331.392 36.0241 330.314 37.0771 328.732 37.5866C327.412 38.0121 325.841 38.0186 324.55 37.6726Z" fill="#C24229"/>
<path d="M320.955 14.4601C320.478 14.9883 319.857 15.3626 319.33 15.8408C318.111 16.9479 317.443 18.6481 317.628 20.2847C317.813 21.9213 318.862 23.4451 320.344 24.1625C319.601 23.5594 319.122 22.6417 319.052 21.6871C318.982 20.7324 319.322 19.7546 319.969 19.0494C320.589 18.3738 321.446 17.9662 322.134 17.3593C322.777 16.7909 323.263 16.0505 323.555 15.2429C323.888 14.3211 323.948 13.2249 323.391 12.4182C322.907 11.7161 322.104 11.3166 321.599 10.6246C321.993 11.9445 321.936 13.3722 320.955 14.4601Z" fill="#C24229"/>
<path d="M321.423 23.5216C321.13 23.0402 320.825 22.5151 320.876 21.9538C320.925 21.3961 321.314 20.9335 321.704 20.5323C322.091 20.1343 322.499 19.7561 322.924 19.3994C323.518 18.9014 324.203 18.3414 324.234 17.567C324.613 18.4843 324.388 19.6196 323.688 20.3228C323.458 20.5527 323.188 20.7364 322.945 20.9524C322.413 21.4264 322.019 22.0722 321.917 22.7777C321.823 23.4319 322.014 24.0291 322.364 24.5729C321.916 24.4712 321.643 23.8835 321.423 23.5216Z" fill="#C24229"/>
<path d="M36.5 140.367C30.5706 140.367 27.3361 141.833 27.3361 142.587C27.3361 142.6 27.3386 142.613 27.3411 142.626L27.3495 142.683L29.8208 166.663C29.961 168.024 31.0982 169.05 32.466 169.05H40.534C41.9016 169.05 43.0388 168.024 43.1792 166.663L45.659 142.626C45.6614 142.613 45.6641 142.6 45.6641 142.587C45.6641 141.833 42.4294 140.367 36.5 140.367ZM40.534 170.386H32.466C30.4112 170.386 28.7029 168.844 28.4919 166.8L26.0232 142.845C26.0076 142.755 26 142.67 26 142.587C26 140.252 31.2822 139.031 36.5 139.031C41.7178 139.031 47 140.252 47 142.587C47 142.67 46.9924 142.755 46.977 142.845L44.5079 166.8C44.2973 168.844 42.589 170.386 40.534 170.386Z" fill="#C24229"/>
<path d="M40.5472 150.477L39.7661 150.296L43.2926 135L46.4214 135.712L46.2433 136.494L43.8939 135.959L40.5472 150.477Z" fill="#C24229"/>
<path d="M35.5985 152.645C34.9747 152.645 34.4691 152.139 34.4691 151.516C34.4691 150.892 34.9747 150.386 35.5985 150.386C36.2223 150.386 36.7279 150.892 36.7279 151.516C36.7279 152.139 36.2223 152.645 35.5985 152.645ZM32.4817 150.743C31.8579 150.743 31.3523 150.237 31.3523 149.614C31.3523 148.99 31.8579 148.484 32.4817 148.484C33.1054 148.484 33.6111 148.99 33.6111 149.614C33.6111 150.237 33.1054 150.743 32.4817 150.743ZM36.4999 144.895C32.3454 144.895 28.9775 145.889 28.9775 147.114C28.9775 147.157 28.9825 147.199 28.9904 147.241L30.8814 165.668C31.0152 166.972 32.1086 167.963 33.4134 167.963H39.5864C40.8912 167.963 41.9848 166.972 42.1185 165.668L44.0094 147.241C44.0174 147.199 44.0225 147.157 44.0225 147.114C44.0225 145.889 40.6545 144.895 36.4999 144.895Z" fill="#C24229"/>
</g>
<defs>
<clipPath id="clip0_605_7712">
<rect width="342" height="192.375" rx="16" fill="white"/>
</clipPath>
</defs>
</svg>
