<svg width="70" height="70" viewBox="0 0 70 70" fill="none" xmlns="http://www.w3.org/2000/svg">
<g clip-path="url(#clip0_62_10092)">
<path d="M35 0C15.7002 0 0 15.7002 0 35C0 54.2998 15.7002 70 35 70C54.2998 70 70 54.2998 70 35C70 15.7002 54.2998 0 35 0Z" fill="#F44336"/>
<path d="M47.8889 43.7644C49.0291 44.9051 49.0291 46.7482 47.8889 47.8889C47.3201 48.4577 46.5735 48.7434 45.8264 48.7434C45.0798 48.7434 44.3332 48.4577 43.7644 47.8889L35 39.124L26.2355 47.8889C25.6668 48.4577 24.9202 48.7434 24.1735 48.7434C23.4264 48.7434 22.6798 48.4577 22.111 47.8889C20.9708 46.7482 20.9708 44.9051 22.111 43.7644L30.876 35L22.111 26.2355C20.9708 25.0948 20.9708 23.2518 22.111 22.111C23.2518 20.9708 25.0948 20.9708 26.2355 22.111L35 30.876L43.7644 22.111C44.9051 20.9708 46.7482 20.9708 47.8889 22.111C49.0291 23.2518 49.0291 25.0948 47.8889 26.2355L39.124 35L47.8889 43.7644Z" fill="#FAFAFA"/>
</g>
<defs>
<clipPath id="clip0_62_10092">
<rect width="70" height="70" fill="white"/>
</clipPath>
</defs>
</svg>
