<svg width="20" height="20" viewBox="0 0 20 20" fill="none" xmlns="http://www.w3.org/2000/svg">
<path d="M4.53864 16.6887H6.53344C6.56116 16.8625 6.70519 16.9984 6.88709 16.9984H11.4224C11.6049 16.9984 11.7483 16.8632 11.776 16.6887H13.7708C14.1082 16.6887 14.3814 16.4155 14.3814 16.0781H3.92871C3.92871 16.4155 4.2019 16.6887 4.53864 16.6887Z" fill="#393939"/>
<path d="M16.7842 10.413C16.2757 10.0012 15.5596 9.99446 15.0883 10.0465C15.1018 9.71789 15.1093 9.38182 15.1093 9.03223H2.67529C2.67529 12.3929 3.1838 14.8178 6.40183 15.7226H11.3827C12.6574 15.3648 13.5026 14.7637 14.0632 13.9644C15.2844 13.9408 17.2488 13.46 17.3225 11.7735C17.3543 11.0351 17.0473 10.6254 16.7842 10.413ZM14.5751 13.0002C14.809 12.399 14.9477 11.7228 15.0241 10.9797C15.3541 10.9256 15.9227 10.8911 16.2101 11.1251C16.2629 11.1683 16.4272 11.3022 16.4082 11.7343C16.3697 12.608 15.2851 12.9014 14.5751 13.0002Z" fill="#393939"/>
<path d="M7.74061 8.5604C7.74061 8.5604 10.1073 8.38661 9.02268 6.39115C8.15173 4.78923 8.35054 3.84931 9.46492 3C9.46492 3 5.81479 3.92978 7.94347 6.80701C8.72448 8.06068 7.74061 8.5604 7.74061 8.5604Z" fill="#393939"/>
<path d="M9.33594 8.40089C9.33594 8.40089 11.232 8.00125 10.2001 6.47642C9.82551 5.8151 10.3421 5.5791 10.3421 5.5791C10.3421 5.5791 9.12158 5.61764 9.63685 6.66643C10.0493 7.50965 9.92694 7.9884 9.33594 8.40089Z" fill="#393939"/>
</svg>
