<svg width="32" height="32" viewBox="0 0 32 32" fill="none" xmlns="http://www.w3.org/2000/svg">
<path d="M16.3087 6.94255C11.9654 6.94255 9.59614 8.01996 9.59614 8.5736C9.59614 8.58329 9.59795 8.59299 9.59976 8.60268L9.60593 8.6443L11.4162 26.2648C11.5189 27.2644 12.3519 28.0182 13.3538 28.0182H19.2637C20.2654 28.0182 21.0984 27.2644 21.2012 26.2648L23.0177 8.60268C23.0195 8.59299 23.0214 8.58329 23.0214 8.5736C23.0214 8.01996 20.652 6.94255 16.3087 6.94255ZM19.2637 29H13.3538C11.8487 29 10.5973 27.8674 10.4428 26.3655L8.63445 8.76361C8.62298 8.69769 8.61743 8.63526 8.61743 8.5736C8.61743 6.85827 12.4867 5.96079 16.3087 5.96079C20.1308 5.96079 24 6.85827 24 8.5736C24 8.63526 23.9945 8.69769 23.9831 8.76361L22.1745 26.3655C22.0203 27.8674 20.7689 29 19.2637 29Z" fill="#63334C"/>
<path d="M19.2731 14.3719L18.7009 14.2395L21.2841 3L23.5759 3.52326L23.4455 4.09758L21.7245 3.70462L19.2731 14.3719Z" fill="#CD4532"/>
<path d="M15.6484 15.9656C15.1915 15.9656 14.8211 15.5939 14.8211 15.1356C14.8211 14.6772 15.1915 14.3057 15.6484 14.3057C16.1054 14.3057 16.4757 14.6772 16.4757 15.1356C16.4757 15.5939 16.1054 15.9656 15.6484 15.9656ZM13.3654 14.568C12.9084 14.568 12.5381 14.1965 12.5381 13.7381C12.5381 13.2797 12.9084 12.9082 13.3654 12.9082C13.8222 12.9082 14.1927 13.2797 14.1927 13.7381C14.1927 14.1965 13.8222 14.568 13.3654 14.568ZM16.3087 10.271C13.2655 10.271 10.7986 11.0009 10.7986 11.9015C10.7986 11.9328 10.8022 11.9637 10.808 11.9946L12.1931 25.5348C12.2912 26.4927 13.0921 27.2208 14.0478 27.2208H18.5696C19.5254 27.2208 20.3264 26.4927 20.4243 25.5348L21.8095 11.9946C21.8153 11.9637 21.819 11.9328 21.819 11.9015C21.819 11.0009 19.3519 10.271 16.3087 10.271Z" fill="#FF5532"/>
</svg>
