<svg width="21" height="20" viewBox="0 0 21 20" fill="none" xmlns="http://www.w3.org/2000/svg">
<path d="M10.693 3.90364C7.7605 3.90364 6.16083 4.62882 6.16083 5.00146C6.16083 5.00799 6.16205 5.01451 6.16327 5.02104L6.16744 5.04905L7.38969 16.909C7.45903 17.5818 8.02142 18.0892 8.69788 18.0892H12.6881C13.3645 18.0892 13.9269 17.5818 13.9963 16.909L15.2227 5.02104C15.2239 5.01451 15.2252 5.00799 15.2252 5.00146C15.2252 4.62882 13.6255 3.90364 10.693 3.90364ZM12.6881 18.75H8.69788C7.68167 18.75 6.83677 17.9877 6.73245 16.9768L5.51152 5.12936C5.50377 5.08498 5.50003 5.04296 5.50003 5.00146C5.50003 3.84691 8.11243 3.24284 10.693 3.24284C13.2735 3.24284 15.8859 3.84691 15.8859 5.00146C15.8859 5.04296 15.8822 5.08498 15.8745 5.12936L14.6534 16.9768C14.5493 17.9877 13.7044 18.75 12.6881 18.75Z" fill="#393939"/>
<path d="M12.6944 8.90414L12.3081 8.81505L14.0522 1.25001L15.5996 1.6022L15.5115 1.98877L14.3496 1.72427L12.6944 8.90414Z" fill="#393939"/>
<path d="M10.2472 9.97684C9.93863 9.97684 9.68858 9.72669 9.68858 9.41818C9.68858 9.10966 9.93863 8.85961 10.2472 8.85961C10.5557 8.85961 10.8057 9.10966 10.8057 9.41818C10.8057 9.72669 10.5557 9.97684 10.2472 9.97684ZM8.70569 9.03614C8.39718 9.03614 8.14712 8.78609 8.14712 8.47757C8.14712 8.16905 8.39718 7.919 8.70569 7.919C9.01413 7.919 9.26427 8.16905 9.26427 8.47757C9.26427 8.78609 9.01413 9.03614 8.70569 9.03614ZM10.693 6.14394C8.63827 6.14394 6.97265 6.63525 6.97265 7.24141C6.97265 7.26246 6.97509 7.28326 6.979 7.30405L7.91422 16.4177C7.98043 17.0624 8.52116 17.5525 9.16647 17.5525H12.2195C12.8648 17.5525 13.4056 17.0624 13.4717 16.4177L14.4069 7.30405C14.4108 7.28326 14.4134 7.26246 14.4134 7.24141C14.4134 6.63525 12.7477 6.14394 10.693 6.14394Z" fill="#555555"/>
</svg>
