<svg width="16" height="16" viewBox="0 0 16 16" fill="none" xmlns="http://www.w3.org/2000/svg">
<path fill-rule="evenodd" clip-rule="evenodd" d="M8 10.5776C8.25888 10.5776 8.46875 10.3678 8.46875 10.1089V5.89014C8.46875 5.63125 8.25888 5.42139 8 5.42139C7.74112 5.42139 7.53125 5.63125 7.53125 5.89014V10.1089C7.53125 10.3678 7.74112 10.5776 8 10.5776Z" fill="#393939"/>
<path fill-rule="evenodd" clip-rule="evenodd" d="M5.42188 7.99951C5.42188 8.2584 5.63174 8.46826 5.89063 8.46826H10.1094C10.3683 8.46826 10.5781 8.2584 10.5781 7.99951C10.5781 7.74063 10.3683 7.53076 10.1094 7.53076H5.89063C5.63174 7.53076 5.42188 7.74063 5.42188 7.99951Z" fill="#393939"/>
<mask id="mask0_410_9896" style="mask-type:luminance" maskUnits="userSpaceOnUse" x="2" y="2" width="12" height="12">
<path d="M2 2H14V14H2V2Z" fill="white"/>
</mask>
<g mask="url(#mask0_410_9896)">
<path fill-rule="evenodd" clip-rule="evenodd" d="M2 8C2 11.3137 4.6863 14 8 14C9.13542 14 10.1985 13.6841 11.1046 13.1353C11.326 13.0012 11.3968 12.7129 11.2627 12.4915C11.1285 12.2701 10.8403 12.1993 10.6189 12.3334C9.85511 12.7961 8.95938 13.0625 8 13.0625C5.20406 13.0625 2.9375 10.7959 2.9375 8C2.9375 5.20404 5.20406 2.9375 8 2.9375C10.796 2.9375 13.0625 5.20404 13.0625 8C13.0625 9.03813 12.7427 10.0042 12.2041 10.8098C12.0602 11.025 12.118 11.3161 12.3332 11.46C12.5484 11.6039 12.8395 11.5461 12.9834 11.3308C13.6194 10.3796 14 9.23376 14 8C14 4.68627 11.3137 2 8 2C4.6863 2 2 4.68627 2 8Z" fill="#393939"/>
</g>
</svg>
