<svg width="20" height="20" viewBox="0 0 20 20" fill="none" xmlns="http://www.w3.org/2000/svg">
<path fill-rule="evenodd" clip-rule="evenodd" d="M9.30371 4.99993C9.30371 4.60529 8.98407 4.28564 8.58943 4.28564H5.018C4.62335 4.28564 4.30371 4.60529 4.30371 4.99993V8.57136C4.30371 8.966 4.62335 9.28564 5.018 9.28564H8.58943C8.98407 9.28564 9.30371 8.966 9.30371 8.57136V4.99993ZM7.87514 5.71422V7.85707H5.73228V5.71422H7.87514Z" fill="black"/>
<path fill-rule="evenodd" clip-rule="evenodd" d="M6.42871 1.42847H2.143C1.74871 1.42847 1.42871 1.74847 1.42871 2.14275V6.42847C1.42871 6.82275 1.74871 7.14275 2.143 7.14275C2.53728 7.14275 2.85728 6.82275 2.85728 6.42847V2.85704H6.42871C6.823 2.85704 7.143 2.53704 7.143 2.14275C7.143 1.74847 6.823 1.42847 6.42871 1.42847Z" fill="black"/>
<path fill-rule="evenodd" clip-rule="evenodd" d="M13.5718 2.85704H17.1432V6.42847C17.1432 6.82275 17.4632 7.14275 17.8575 7.14275C18.2518 7.14275 18.5718 6.82275 18.5718 6.42847V2.14275C18.5718 1.74847 18.2518 1.42847 17.8575 1.42847H13.5718C13.1775 1.42847 12.8575 1.74847 12.8575 2.14275C12.8575 2.53704 13.1775 2.85704 13.5718 2.85704Z" fill="black"/>
<path fill-rule="evenodd" clip-rule="evenodd" d="M13.5718 18.5713H17.8575C18.2518 18.5713 18.5718 18.2513 18.5718 17.857V13.5713C18.5718 13.177 18.2518 12.857 17.8575 12.857C17.4632 12.857 17.1432 13.177 17.1432 13.5713V17.1427H13.5718C13.1775 17.1427 12.8575 17.4627 12.8575 17.857C12.8575 18.2513 13.1775 18.5713 13.5718 18.5713Z" fill="black"/>
<path fill-rule="evenodd" clip-rule="evenodd" d="M6.42871 17.1427H2.85728V13.5713C2.85728 13.177 2.53728 12.857 2.143 12.857C1.74871 12.857 1.42871 13.177 1.42871 13.5713V17.857C1.42871 18.2513 1.74871 18.5713 2.143 18.5713H6.42871C6.823 18.5713 7.143 18.2513 7.143 17.857C7.143 17.4627 6.823 17.1427 6.42871 17.1427Z" fill="black"/>
<path fill-rule="evenodd" clip-rule="evenodd" d="M15.7085 4.99993C15.7085 4.60529 15.3889 4.28564 14.9942 4.28564H11.4228C11.0281 4.28564 10.7085 4.60529 10.7085 4.99993V8.57136C10.7085 8.966 11.0281 9.28564 11.4228 9.28564H14.9942C15.3889 9.28564 15.7085 8.966 15.7085 8.57136V4.99993ZM14.2799 5.71422V7.85707H12.1371V5.71422H14.2799Z" fill="black"/>
<path fill-rule="evenodd" clip-rule="evenodd" d="M9.28564 11.4284C9.28564 11.0338 8.966 10.7141 8.57136 10.7141H4.99993C4.60529 10.7141 4.28564 11.0338 4.28564 11.4284V14.9998C4.28564 15.3945 4.60529 15.7141 4.99993 15.7141H8.57136C8.966 15.7141 9.28564 15.3945 9.28564 14.9998V11.4284ZM7.85707 12.1427V14.2855H5.71422V12.1427H7.85707Z" fill="black"/>
<path fill-rule="evenodd" clip-rule="evenodd" d="M11.4287 11.4285H12.8573V12.857H11.4287V11.4285Z" fill="black"/>
<path fill-rule="evenodd" clip-rule="evenodd" d="M14.2915 14.2856H15.7201V15.7142H14.2915V14.2856Z" fill="black"/>
<path fill-rule="evenodd" clip-rule="evenodd" d="M12.8574 12.8569H14.286V14.2855H12.8574V12.8569Z" fill="black"/>
<path fill-rule="evenodd" clip-rule="evenodd" d="M11.4229 14.2856H12.8514V15.7142H11.4229V14.2856Z" fill="black"/>
<path fill-rule="evenodd" clip-rule="evenodd" d="M14.2856 11.4285H15.7142V12.857H14.2856V11.4285Z" fill="black"/>
</svg>
