<svg width="37" height="36" viewBox="0 0 37 36" fill="none" xmlns="http://www.w3.org/2000/svg">
<path d="M21.1351 8.72208L22.6212 7.30761C22.727 7.20695 22.8019 7.07937 22.8374 6.93931C22.8728 6.79924 22.8674 6.65228 22.8218 6.51506C22.7761 6.37783 22.6921 6.25583 22.5791 6.16284C22.4661 6.06986 22.3287 6.00961 22.1825 5.98891L20.1283 5.69759L19.21 3.87989C19.1371 3.75935 19.0332 3.65946 18.9087 3.59007C18.7842 3.52068 18.6433 3.48418 18.5 3.48418C18.3566 3.48418 18.2157 3.52068 18.0912 3.59007C17.9667 3.65946 17.8629 3.75935 17.79 3.87989L16.8718 5.69752L14.8175 5.98883C14.6713 6.00953 14.5339 6.06978 14.4209 6.16277C14.308 6.25575 14.2239 6.37776 14.1782 6.51498C14.1326 6.6522 14.1272 6.79916 14.1626 6.93923C14.1981 7.0793 14.273 7.20688 14.3789 7.30753L15.8649 8.722L15.5139 10.72C15.4889 10.8621 15.5052 11.0083 15.5608 11.1419C15.6165 11.2756 15.7093 11.3913 15.8289 11.4761C15.9484 11.5609 16.0898 11.6113 16.2372 11.6217C16.3845 11.632 16.5319 11.6019 16.6626 11.5348L18.5 10.5913L20.3374 11.5349C20.4681 11.602 20.6155 11.6321 20.7629 11.6218C20.9102 11.6114 21.0516 11.561 21.1712 11.4762C21.2907 11.3914 21.3835 11.2756 21.4392 11.142C21.4948 11.0084 21.5111 10.8622 21.4861 10.72L21.1351 8.72208Z" fill="#63334C"/>
<path d="M30.9612 8.84069C30.9155 8.7035 30.8314 8.58152 30.7185 8.48855C30.6055 8.39557 30.4681 8.33531 30.3219 8.31457L28.2679 8.02318L27.3488 6.20569C27.276 6.0851 27.1722 5.98514 27.0477 5.9157C26.9232 5.84626 26.7823 5.80973 26.639 5.80973C26.4956 5.80973 26.3547 5.84626 26.2302 5.9157C26.1057 5.98514 26.0019 6.0851 25.9291 6.20569L25.0109 8.02318L22.957 8.31457C22.8108 8.33526 22.6734 8.39547 22.5605 8.48841C22.4475 8.58134 22.3634 8.70328 22.3177 8.84044C22.2721 8.97759 22.2666 9.1245 22.302 9.26453C22.3373 9.40456 22.4121 9.53214 22.5179 9.63284L24.0044 11.0473L23.6534 13.0452C23.6284 13.1874 23.6446 13.3335 23.7002 13.4671C23.7558 13.6008 23.8486 13.7165 23.968 13.8014C24.0875 13.8862 24.2289 13.9367 24.3763 13.9471C24.5236 13.9575 24.671 13.9275 24.8017 13.8604L26.6389 12.9175L28.4764 13.8604C28.6071 13.9276 28.7545 13.9577 28.9018 13.9473C29.0492 13.9369 29.1906 13.8865 29.3102 13.8017C29.4297 13.7169 29.5225 13.6012 29.5782 13.4676C29.6339 13.3339 29.6501 13.1878 29.6251 13.0456L29.2742 11.0476L30.7604 9.63322C30.8663 9.53259 30.9412 9.40502 30.9767 9.26496C31.0122 9.12489 31.0068 8.97792 30.9612 8.84069Z" fill="#63334C"/>
<path d="M14.0426 8.33863L11.9888 8.04849L11.0706 6.23876C11.0052 6.10998 10.9041 6.00155 10.7786 5.92573C10.6532 5.84991 10.5084 5.80973 10.3607 5.80973C10.213 5.80973 10.0683 5.84991 9.94282 5.92573C9.81738 6.00155 9.71626 6.10998 9.6509 6.23876L8.73174 8.04849L6.67782 8.33863C6.5316 8.35925 6.39424 8.41924 6.28128 8.51182C6.16831 8.6044 6.08425 8.72587 6.0386 8.86249C5.99296 8.9991 5.98755 9.14542 6.02299 9.28487C6.05843 9.42432 6.1333 9.55135 6.23914 9.65158L7.72552 11.06L7.37454 13.0495C7.34955 13.191 7.36579 13.3366 7.42145 13.4696C7.4771 13.6027 7.56994 13.7179 7.68947 13.8023C7.80899 13.8868 7.95043 13.937 8.09778 13.9473C8.24513 13.9576 8.39251 13.9277 8.52325 13.8608L10.3607 12.9219L12.1977 13.8608C12.3285 13.9277 12.4759 13.9576 12.6232 13.9473C12.7706 13.937 12.912 13.8868 13.0315 13.8023C13.151 13.7179 13.2439 13.6027 13.2995 13.4696C13.3552 13.3366 13.3714 13.191 13.3464 13.0495L12.9955 11.06L14.4819 9.65165C14.5877 9.55139 14.6625 9.42435 14.6978 9.28492C14.7332 9.14548 14.7277 8.99921 14.682 8.86264C14.6364 8.72606 14.5523 8.60464 14.4393 8.51211C14.3264 8.41957 14.1888 8.35923 14.0426 8.33863Z" fill="#63334C"/>
<path d="M27.9476 16.493H9.05221C8.30076 16.4938 7.58032 16.7927 7.04896 17.324C6.5176 17.8554 6.21872 18.5758 6.2179 19.3273V26.8854C6.21872 27.6369 6.5176 28.3573 7.04896 28.8887C7.58032 29.4201 8.30076 29.7189 9.05221 29.7198H15.2744L17.832 32.2773C17.9197 32.365 18.0238 32.4346 18.1384 32.4821C18.253 32.5296 18.3759 32.5541 18.4999 32.5541C18.624 32.5541 18.7468 32.5296 18.8614 32.4821C18.9761 32.4346 19.0802 32.365 19.1679 32.2773L21.7255 29.7198H27.9476C28.6991 29.7189 29.4195 29.4201 29.9509 28.8887C30.4822 28.3573 30.7811 27.6369 30.7819 26.8854V19.3273C30.7811 18.5758 30.4822 17.8554 29.9509 17.324C29.4195 16.7927 28.6991 16.4938 27.9476 16.493ZM26.0581 25.9407H10.9418C10.6912 25.9407 10.4509 25.8411 10.2737 25.664C10.0965 25.4868 9.99698 25.2465 9.99698 24.9959C9.99698 24.7453 10.0965 24.505 10.2737 24.3279C10.4509 24.1507 10.6912 24.0511 10.9418 24.0511H26.0581C26.3087 24.0511 26.549 24.1507 26.7261 24.3279C26.9033 24.505 27.0029 24.7453 27.0029 24.9959C27.0029 25.2465 26.9033 25.4868 26.7261 25.664C26.549 25.8411 26.3087 25.9407 26.0581 25.9407ZM26.0581 22.1616H10.9418C10.6912 22.1616 10.4509 22.0621 10.2737 21.8849C10.0965 21.7077 9.99698 21.4674 9.99698 21.2168C9.99698 20.9663 10.0965 20.7259 10.2737 20.5488C10.4509 20.3716 10.6912 20.2721 10.9418 20.2721H26.0581C26.3087 20.2721 26.549 20.3716 26.7261 20.5488C26.9033 20.7259 27.0029 20.9663 27.0029 21.2168C27.0029 21.4674 26.9033 21.7077 26.7261 21.8849C26.549 22.0621 26.3087 22.1616 26.0581 22.1616Z" fill="#FF5532"/>
</svg>
