<svg width="20" height="20" viewBox="0 0 20 20" fill="none" xmlns="http://www.w3.org/2000/svg">
<path d="M4.53913 16.6887H6.53392C6.56165 16.8625 6.70568 16.9984 6.88758 16.9984H11.4229C11.6054 16.9984 11.7488 16.8632 11.7765 16.6887H13.7713C14.1087 16.6887 14.3819 16.4155 14.3819 16.0781H3.9292C3.9292 16.4155 4.20238 16.6887 4.53913 16.6887Z" fill="current"/>
<path d="M16.7845 10.413C16.276 10.0012 15.5599 9.99446 15.0886 10.0465C15.1021 9.71789 15.1095 9.38182 15.1095 9.03223H2.67554C2.67554 12.3929 3.18404 14.8178 6.40208 15.7226H11.383C12.6576 15.3648 13.5029 14.7637 14.0634 13.9644C15.2846 13.9408 17.249 13.46 17.3227 11.7735C17.3545 11.0351 17.0475 10.6254 16.7845 10.413ZM14.5753 13.0002C14.8093 12.399 14.9479 11.7228 15.0243 10.9797C15.3543 10.9256 15.923 10.8911 16.2104 11.1251C16.2631 11.1683 16.4274 11.3022 16.4085 11.7343C16.37 12.608 15.2853 12.9014 14.5753 13.0002Z" fill="current"/>
<path d="M7.74109 8.5604C7.74109 8.5604 10.1078 8.38661 9.02317 6.39115C8.15222 4.78923 8.35103 3.84931 9.4654 3C9.4654 3 5.81527 3.92978 7.94395 6.80701C8.72496 8.06068 7.74109 8.5604 7.74109 8.5604Z" fill="current"/>
<path d="M9.33594 8.40089C9.33594 8.40089 11.232 8.00125 10.2001 6.47642C9.82551 5.8151 10.3421 5.5791 10.3421 5.5791C10.3421 5.5791 9.12158 5.61764 9.63685 6.66643C10.0493 7.50965 9.92694 7.9884 9.33594 8.40089Z" fill="current"/>
</svg>
