<svg width="22" height="15" viewBox="0 0 22 15" fill="none" xmlns="http://www.w3.org/2000/svg">
<path d="M20.4999 10.5C20.4999 10.3078 20.54 10.1177 20.6177 9.94191C20.6953 9.7661 20.8088 9.60843 20.9509 9.479C21.4635 8.94728 21.7499 8.23753 21.7499 7.499C21.7499 6.76047 21.4635 6.05072 20.9509 5.519C20.8089 5.38995 20.6954 5.23264 20.6177 5.05716C20.5401 4.88168 20.4999 4.6919 20.4999 4.5C20.4959 4.33631 20.5242 4.17343 20.5832 4.02071C20.6422 3.86798 20.7308 3.72841 20.8439 3.61C21.0542 3.35366 21.1874 3.04286 21.2279 2.71377C21.2684 2.38468 21.2146 2.05086 21.0727 1.75118C20.9308 1.4515 20.7067 1.19829 20.4265 1.02104C20.1463 0.843792 19.8215 0.749796 19.4899 0.75H2.50993C2.17899 0.750226 1.8549 0.844284 1.57526 1.02126C1.29562 1.19824 1.0719 1.45088 0.930044 1.74987C0.78819 2.04887 0.734023 2.38195 0.773828 2.71049C0.813632 3.03902 0.945777 3.34953 1.15493 3.606C1.26864 3.72484 1.35767 3.86503 1.41689 4.01848C1.4761 4.17192 1.50433 4.33558 1.49993 4.5C1.49991 4.6919 1.45978 4.88168 1.38211 5.05716C1.30445 5.23264 1.19096 5.38995 1.04893 5.519C0.536385 6.05072 0.25 6.76047 0.25 7.499C0.25 8.23753 0.536385 8.94728 1.04893 9.479C1.19101 9.60843 1.30452 9.7661 1.38217 9.94191C1.45983 10.1177 1.49994 10.3078 1.49993 10.5C1.50477 10.6657 1.47638 10.8307 1.41644 10.9853C1.3565 11.1399 1.26622 11.2809 1.15093 11.4C0.943886 11.6568 0.813596 11.9669 0.775064 12.2945C0.736533 12.6221 0.791328 12.9539 0.933139 13.2518C1.07495 13.5496 1.29801 13.8013 1.57662 13.9779C1.85523 14.1545 2.17806 14.2488 2.50793 14.25H19.4919C19.8231 14.2499 20.1475 14.1558 20.4274 13.9787C20.7073 13.8017 20.9313 13.5488 21.0732 13.2496C21.2152 12.9503 21.2694 12.617 21.2295 12.2882C21.1896 11.9594 21.0573 11.6486 20.8479 11.392C20.7336 11.2739 20.6439 11.1342 20.5841 10.981C20.5244 10.8279 20.4958 10.6643 20.4999 10.5Z" fill="#DC4A4E"/>
<path d="M9.00007 10.2498C8.85183 10.2497 8.70696 10.2057 8.58374 10.1232C8.46053 10.0408 8.3645 9.92373 8.30779 9.78677C8.25107 9.64981 8.23622 9.49911 8.26511 9.35371C8.29399 9.20831 8.36532 9.07473 8.47007 8.96985L12.4701 4.96985C12.6122 4.83737 12.8003 4.76524 12.9946 4.76867C13.1889 4.7721 13.3743 4.85081 13.5117 4.98823C13.6491 5.12564 13.7278 5.31102 13.7312 5.50532C13.7347 5.69963 13.6626 5.88767 13.5301 6.02985L9.53007 10.0298C9.46069 10.0998 9.37812 10.1552 9.28714 10.193C9.19616 10.2308 9.09858 10.2501 9.00007 10.2498Z" fill="white"/>
<path d="M9 6.5C9.55228 6.5 10 6.05228 10 5.5C10 4.94772 9.55228 4.5 9 4.5C8.44772 4.5 8 4.94772 8 5.5C8 6.05228 8.44772 6.5 9 6.5Z" fill="white"/>
<path d="M13 10.5C13.5523 10.5 14 10.0523 14 9.5C14 8.94772 13.5523 8.5 13 8.5C12.4477 8.5 12 8.94772 12 9.5C12 10.0523 12.4477 10.5 13 10.5Z" fill="white"/>
</svg>
